<svg height="136.823" viewBox="0 0 348.48 136.823" width="348.48" xmlns="http://www.w3.org/2000/svg" xmlns:xlink="http://www.w3.org/1999/xlink"><linearGradient id="a" gradientUnits="objectBoundingBox" x1=".5" x2=".5" y1=".733" y2="-.196"><stop offset="0" stop-color="#0069b1"/><stop offset="1" stop-color="#00a4e1"/></linearGradient><clipPath id="b"><path d="m293.407 46.766h57.533v75.072h-57.533z"/></clipPath><clipPath id="c"><path d="m28.171 113.021a17.545 17.545 0 0 1 -5.088-12.521 18.717 18.717 0 0 1 4.965-13.154 15.751 15.751 0 0 1 12.032-5.395 16.392 16.392 0 0 1 12.136 5.168 17.367 17.367 0 0 1 5.067 12.645 18.467 18.467 0 0 1 -5.089 13.236 16.36 16.36 0 0 1 -12.318 5.351 15.755 15.755 0 0 1 -11.7-5.332m-10.763-63v72.5h5.675v-6.781a23.179 23.179 0 0 0 7.579 5.985 20.9 20.9 0 0 0 9.134 1.982 22.647 22.647 0 0 0 16.832-6.8 23.114 23.114 0 0 0 6.7-16.894 23.047 23.047 0 0 0 -6.563-16.589 21.391 21.391 0 0 0 -16.038-6.822 22.017 22.017 0 0 0 -9.681 2.084 23.946 23.946 0 0 0 -7.968 6.455v-35.122z"/></clipPath><linearGradient id="d" x1="-.006" x2=".006" xlink:href="#a" y1="2.475" y2="2.475"/><clipPath id="e"><path d="m29.178 112.055a16.149 16.149 0 0 1 -4.7-11.559 17.285 17.285 0 0 1 4.6-12.205 14.316 14.316 0 0 1 11.002-4.943 14.927 14.927 0 0 1 11.137 4.752 15.945 15.945 0 0 1 4.667 11.668 17.065 17.065 0 0 1 -4.7 12.275 14.949 14.949 0 0 1 -11.305 4.916 14.342 14.342 0 0 1 -10.7-4.9m-2.156-25.659a20.121 20.121 0 0 0 -5.338 14.1 18.994 18.994 0 0 0 5.473 13.482 17.142 17.142 0 0 0 12.718 5.764h.072a17.773 17.773 0 0 0 13.252-5.785 19.882 19.882 0 0 0 5.471-14.2 18.772 18.772 0 0 0 -5.467-13.622 17.782 17.782 0 0 0 -13.124-5.584h-.074a17.157 17.157 0 0 0 -12.983 5.845m-8.223-21.974h2.895v24.562l2.462-2.961a22.6 22.6 0 0 1 7.5-6.088 20.606 20.606 0 0 1 9.078-1.949 19.966 19.966 0 0 1 15.029 6.4 21.648 21.648 0 0 1 6.169 15.621 21.7 21.7 0 0 1 -6.3 15.916 21.223 21.223 0 0 1 -15.839 6.388 19.594 19.594 0 0 1 -8.528-1.843 21.818 21.818 0 0 1 -7.121-5.639l-2.451-2.859v9.154h-2.894zm4.291-15.8h-7.079v75.289h8.465v-4.73a22.857 22.857 0 0 0 5.587 3.8 22.275 22.275 0 0 0 9.728 2.12h.062a24.046 24.046 0 0 0 17.767-7.223 24.522 24.522 0 0 0 7.1-17.871 24.455 24.455 0 0 0 -6.944-17.553 22.8 22.8 0 0 0 -17.045-7.258 22.535 22.535 0 0 0 -16.255 6.4v-32.977z"/></clipPath><linearGradient id="f" x1=".013" x2=".025" xlink:href="#a" y1="2.369" y2="2.369"/><clipPath id="g"><path d="m76.159 85.859a15.984 15.984 0 0 1 11.073-4.072q7.027 0 11.4 3.789t6 11.285h-34.032a17.732 17.732 0 0 1 5.557-11m-5.044-2.8q-6.644 6.7-6.638 16.953a23.25 23.25 0 0 0 6.78 16.793 22.229 22.229 0 0 0 16.589 6.986 21.89 21.89 0 0 0 13.011-3.994 25.761 25.761 0 0 0 8.724-11.451h-6.535a17.233 17.233 0 0 1 -6.255 7.3 16.36 16.36 0 0 1 -9.108 2.625 16.675 16.675 0 0 1 -11.931-4.523 17.415 17.415 0 0 1 -5.313-11.857h40.569v-.424q0-11.166-6.39-18.141t-16.527-6.977q-10.333 0-16.974 6.7"/></clipPath><linearGradient id="h" x1="-1.129" x2="-1.11" xlink:href="#a" y1="2.351" y2="2.351"/><clipPath id="i"><path d="m77.09 86.894a14.577 14.577 0 0 1 10.142-3.714c4.445.009 7.851 1.173 10.485 3.447a17.585 17.585 0 0 1 5.137 8.838h-30.576a15.728 15.728 0 0 1 4.812-8.571m10.142-6.5a17.423 17.423 0 0 0 -12.006 4.426 19.09 19.09 0 0 0 -6 11.838l-.239 1.6h37.381l-.368-1.698c-1.133-5.195-3.253-9.263-6.458-12.041s-7.358-4.127-12.26-4.127h-.05m-14.973 35.434a21.8 21.8 0 0 1 -6.389-15.816c.007-6.541 2.076-11.76 6.234-15.975 4.176-4.2 9.39-6.279 15.985-6.287 6.435.014 11.476 2.154 15.5 6.519 3.821 4.17 5.832 9.5 6.014 16.223h-40.664l.11 1.5a18.809 18.809 0 0 0 5.743 12.77 18.1 18.1 0 0 0 12.887 4.9 17.759 17.759 0 0 0 9.871-2.85 18.472 18.472 0 0 0 6.358-7.082h3.506a23.408 23.408 0 0 1 -7.365 8.92 20.472 20.472 0 0 1 -12.2 3.742 20.808 20.808 0 0 1 -15.587-6.568m-2.139-33.754a24.538 24.538 0 0 0 -7.045 17.942 24.667 24.667 0 0 0 7.175 17.757 23.657 23.657 0 0 0 17.531 7.411h.062a23.328 23.328 0 0 0 13.818-4.246 27.191 27.191 0 0 0 9.2-12.057l.805-1.928h-9.51l-.378.8a15.858 15.858 0 0 1 -5.749 6.729 14.976 14.976 0 0 1 -8.353 2.4 15.308 15.308 0 0 1 -10.972-4.143 15.564 15.564 0 0 1 -4.716-9.453h40.409v-1.814c.01-7.707-2.233-14.158-6.76-19.084a22.816 22.816 0 0 0 -17.555-7.428h-.065c-7.156 0-13.238 2.391-17.9 7.113"/></clipPath><linearGradient id="j" x1="-1.037" x2="-1.02" xlink:href="#a" y1="2.246" y2="2.246"/><clipPath id="k"><path d="m114.364 50.017h5.76v72.502h-5.76z"/></clipPath><linearGradient id="l" x1="-1.117" x2="-1.103" xlink:href="#a" y1="7.258" y2="7.258"/><clipPath id="m"><path d="m115.756 51.41h2.974v69.713h-2.974zm-2.791-2.789v75.3h8.554v-75.3z"/></clipPath><linearGradient id="n" x1="-1.049" x2="-1.035" xlink:href="#a" y1="6.171" y2="6.171"/><clipPath id="o"><path d="m130.6 83.279a24.224 24.224 0 0 0 -.077 33.58 23.357 23.357 0 0 0 29.68 2.924 22.941 22.941 0 0 0 8.21-11.316h-6.373a16.192 16.192 0 0 1 -6.086 7.228 16.677 16.677 0 0 1 -9.234 2.576 15.763 15.763 0 0 1 -12.01-5.211 18.26 18.26 0 0 1 -4.864-12.97 18.547 18.547 0 0 1 4.841-13.033 15.415 15.415 0 0 1 11.789-5.27 17.007 17.007 0 0 1 9.09 2.348 18.673 18.673 0 0 1 6.474 7.252h6.373a23.628 23.628 0 0 0 -8.356-11.092 21.753 21.753 0 0 0 -12.887-3.944 22.354 22.354 0 0 0 -16.57 6.928"/></clipPath><linearGradient id="p" x1="-2.226" x2="-2.208" xlink:href="#a" y1="2.419" y2="2.419"/><clipPath id="q"><path d="m162.043 91.385 1.225-.662zm-30.519 24.506a22.847 22.847 0 0 1 .072-31.637 20.929 20.929 0 0 1 15.577-6.506 20.364 20.364 0 0 1 12.086 3.682 21.6 21.6 0 0 1 7.042 8.564h-3.442a19.581 19.581 0 0 0 -6.56-7.047 18.413 18.413 0 0 0 -9.82-2.555 16.811 16.811 0 0 0 -12.816 5.719 19.952 19.952 0 0 0 -5.207 13.979 19.664 19.664 0 0 0 5.237 13.922 17.169 17.169 0 0 0 13.03 5.652 18.048 18.048 0 0 0 9.99-2.8 17.494 17.494 0 0 0 6.215-7.01h3.435a21.4 21.4 0 0 1 -34.839 6.034m-1.913-33.588a25.643 25.643 0 0 0 -.088 35.537 23.5 23.5 0 0 0 17.425 7.344h.057a23.489 23.489 0 0 0 14.011-4.26 24.374 24.374 0 0 0 8.712-11.984l.668-1.866h-9.256l-.374.826a14.732 14.732 0 0 1 -5.563 6.625 15.277 15.277 0 0 1 -8.48 2.358 14.365 14.365 0 0 1 -10.991-4.77 16.841 16.841 0 0 1 -4.485-12.017 17.121 17.121 0 0 1 4.472-12.093 13.987 13.987 0 0 1 10.76-4.818 15.66 15.66 0 0 1 8.36 2.14 17.3 17.3 0 0 1 5.976 6.731l.393.728h9.247l-.741-1.9a25.008 25.008 0 0 0 -8.85-11.727 23.145 23.145 0 0 0 -13.691-4.2h-.062a23.738 23.738 0 0 0 -17.5 7.342"/></clipPath><linearGradient id="r" x1="-2.074" x2="-2.057" xlink:href="#a" y1="2.286" y2="2.286"/><clipPath id="s"><path d="m177.96 83.279a24.227 24.227 0 0 0 -.079 33.58 23.357 23.357 0 0 0 29.68 2.924 22.933 22.933 0 0 0 8.212-11.316h-6.373a16.186 16.186 0 0 1 -6.086 7.228 16.677 16.677 0 0 1 -9.234 2.576 15.766 15.766 0 0 1 -12.01-5.211 18.264 18.264 0 0 1 -4.863-12.97 18.544 18.544 0 0 1 4.842-13.033 15.4 15.4 0 0 1 11.789-5.27 17 17 0 0 1 9.089 2.348 18.648 18.648 0 0 1 6.473 7.252h6.374a23.646 23.646 0 0 0 -8.355-11.092 21.77 21.77 0 0 0 -12.889-3.944 22.347 22.347 0 0 0 -16.569 6.928"/></clipPath><linearGradient id="t" x1="-3.11" x2="-3.091" xlink:href="#a" y1="2.419" y2="2.419"/><clipPath id="u"><path d="m209.4 91.385 1.233-.662zm-30.512 24.506a22.828 22.828 0 0 1 .072-31.637 20.91 20.91 0 0 1 15.569-6.506 20.359 20.359 0 0 1 12.086 3.682 21.474 21.474 0 0 1 7.041 8.564h-3.433a19.614 19.614 0 0 0 -6.563-7.047 18.446 18.446 0 0 0 -9.824-2.56 16.822 16.822 0 0 0 -12.812 5.724 19.968 19.968 0 0 0 -5.211 13.979 19.7 19.7 0 0 0 5.24 13.922 17.178 17.178 0 0 0 13.03 5.652 18.038 18.038 0 0 0 9.987-2.8 17.452 17.452 0 0 0 6.216-7.01h3.433a21.389 21.389 0 0 1 -34.831 6.034m-1.925-33.588a25.625 25.625 0 0 0 -.088 35.537 23.508 23.508 0 0 0 17.433 7.344h.057a23.5 23.5 0 0 0 14.008-4.26 24.364 24.364 0 0 0 8.713-11.984l.664-1.866h-9.261l-.361.826a14.792 14.792 0 0 1 -5.568 6.625 15.3 15.3 0 0 1 -8.481 2.358 14.376 14.376 0 0 1 -10.994-4.77 16.852 16.852 0 0 1 -4.485-12.02 17.129 17.129 0 0 1 4.472-12.09 14 14 0 0 1 10.76-4.818 15.623 15.623 0 0 1 8.358 2.14 17.209 17.209 0 0 1 5.98 6.731l.39.728h9.249l-.739-1.9a25.064 25.064 0 0 0 -8.845-11.727 23.169 23.169 0 0 0 -13.7-4.2h-.062a23.749 23.749 0 0 0 -17.5 7.342"/></clipPath><linearGradient id="v" x1="-2.907" x2="-2.889" xlink:href="#a" y1="2.286" y2="2.286"/><linearGradient id="w" x1=".411" x2=".716" xlink:href="#a" y1=".876" y2=".273"/><g transform="translate(-16.012 -30.666)"><path d="m273.709 30.676c.6 1.586 3.017 6.847 3.546 8.412.278.4 1.4.633 1.321.351-.779-2.6-.322-1.949.174-2.146 1.281 3.82 2.412 7.654 3.393 11.557a156.29 156.29 0 0 1 3.646 21.621c.2 4.2.238 8.423.109 12.638-.041.725.635 1.293 1.2 1.8-.2 3.94-.554 7.891-1.043 11.789a161.49 161.49 0 0 1 -4.475 17.625 115.584 115.584 0 0 1 -9.611 21.58c-.191.617.547.522.92.85 1.508.383 1.74-1.266 2.633-1.955a1.824 1.824 0 0 0 1.814-.856 165.347 165.347 0 0 0 8.188-19.412 155.41 155.41 0 0 0 4.391-17.986c.376-2.775.7-5.539.93-8.344.569-.445 1.353.041 2.055-.14.3-.547-.265-1.467.508-1.7.063.063.143.143.2.2-.133 3.413-.377 6.832-.733 10.237a160.592 160.592 0 0 1 -4.189 19.611c-.311.2-.641.365-.969.541a108.943 108.943 0 0 1 -11.256 25.219 2.9 2.9 0 0 0 1.215 2.56c1.258.723 2.186-.83 3.281.317.26-.2.492-.408.745-.594.357.391 1.029.953 1.622.8.16.592-.506 1.1.428 1.361 2.565-2.062 2.852-5.889 6.385-6.875.955-.867 1.38-2.217 2.1-3.248 1.912-2.912 3.459-6.111 5.428-8.891a71.7 71.7 0 0 1 -3.608 7.6c.472.852-.447 1.424-.5 2.223a29 29 0 0 1 -1.85 3.832c.164.414.9.486 1.256.287 1.566-1.463 2.311-3.465 3.618-4.961.97.414 1.724-.438 2.259-.981.035 1.055-.908 1.786 0 2.8-.215 1.686-2.295 2.586-2.129 4.344 1.186.754 2.942.266 4.127.387 1.4-1.194 1.471-2.7 2.961-3.737a92.555 92.555 0 0 1 -13.777 23.313c-.155.578.431 1.152.927 1.252 1.941.16 1.866-2.127 3.559-2.582.09.726-.8 1.285-1.006 2.039.154 1.271-2.691 2.1-.844 3.387 1.149.359 2.365-.725 3.223.406.455-.07.463-.309.918-.418.355.242.635.861 1.227.658 8.247-10.312 14.008-22.2 18.659-34.342.091 0 .212-.025.327-.025-.277 2.768-1.527 5.06-2.252 7.621a1.13 1.13 0 0 0 1.291.465c1.945-3.436 3.258-7.172 5.33-10.545a.527.527 0 0 0 .148-.061c-.8 3.467-2.482 6.594-3.669 9.887 0 .205.325.406.471.584 1.09-.951 1.259-2.8 2.6-3.557-.438 2.086-1.677 4.116-2.345 6.053 1.6-.637 2.562 2.018 4.021.836.671.129 1.216.67 1.953.4 1-.873 1.39-2.356 2.5-2.881a2.927 2.927 0 0 1 .218.213 17.343 17.343 0 0 1 -1.482 3.847 1.008 1.008 0 0 0 1.131.682c3.875-6.682 6.266-14.008 8.748-21.295.156-.316.576-.234.785-.125 2.147 1.795-.092 4.053-.146 6.035-.526 1.516-1.012 2.975-1.391 4.506.422.09 1.2.8 1.272-.178.648-1.142.733-2.631 1.451-3.633a1.342 1.342 0 0 0 .242.235 142.289 142.289 0 0 1 -6.2 16.639c.33.367 1 .712 1.179.007a215.04 215.04 0 0 0 8.479-22.443c.193-1.547 1.043-2.957 1.244-4.461.715-.055.533 1.262 1.275.824.654-.236.118-1.234.861-1.138.294.984.562 1.984.824 2.986a4.838 4.838 0 0 0 2.393 1.109c7.972-21.273 8.754-44.845 5.255-67.715.037-.152.306-.121.447-.191a2.784 2.784 0 0 0 .275.252 211.16 211.16 0 0 1 2.1 26.012c.293 12.736-1.985 25.119-5.631 37.09a.6.6 0 0 0 .82.423c.2-.1.374-.175.57-.269 7.172-22.365 6.812-46.822 2.454-70.342a2.473 2.473 0 0 0 .816-2.646c-1-4.528-4.01-12.756-5.311-17.223-.3-.107-.613-.264-.925-.408h-64.813c1.643 4.131 4.994 12.041 6.32 16.25a163.8 163.8 0 0 1 3.956 20.74c.275 3.734.4 7.463.411 11.217-.142.117-.326.25-.478.375-.018 1.381-.061 2.779-.114 4.15a.717.717 0 0 1 -.921-.088 133.893 133.893 0 0 0 -.679-16.213 167.143 167.143 0 0 0 -3.829-19.83c-1.314-4.336-4.666-12.355-6.344-16.6v-.01z" fill="url(#a)"/><path d="m354.707 79.873-.176.133c1.528 1.215.463 3.115.338 4.49.856-.787 2.361.031 2.986-1.344a2.99 2.99 0 0 0 .073-2.592c-1.026-.326-2.174-.419-3.221-.687" fill="#fff"/><g fill="#161615"><path d="m307.926 70.166a47.3 47.3 0 0 1 9.623-.338 34.628 34.628 0 0 1 3.529.434c.072-.1.2-.127.157-.231-.085-.125-.221-.125-.323-.26a36.523 36.523 0 0 0 -12.332.008c-.166.031-.332.065-.5.1z"/><path d="m317.875 56.09c.553.135 1.107.82 1.7.392-.43-1.152-1.81-1.306-2.822-1.742a1.046 1.046 0 0 0 -.457 1.111c.421.53 1.021-.091 1.58.239"/><path d="m316.123 61.832a1.8 1.8 0 0 0 -1.666.768 1.745 1.745 0 0 0 .875 2.841 1.936 1.936 0 0 0 2.432-.783 1.75 1.75 0 0 0 0-1.812 1.8 1.8 0 0 0 -1.641-1.014"/><path d="m314.314 73.41c-.052-.062-.127-.1-.091-.168-1.506-1.082-3.308-1.475-4.948-2.2-.459-.02-1.445-.387-1.515.3a14.234 14.234 0 0 1 4.892 1.578c.522.258 1.175.81 1.662.488"/><path d="m307.31 61.92a2.4 2.4 0 0 0 -1.736.056 1.712 1.712 0 0 0 -.955 1.8 1.9 1.9 0 0 0 1 1.485 2.155 2.155 0 0 0 1.422.064 1.1 1.1 0 0 0 .244-.119 1.31 1.31 0 0 0 .239-.164 1.815 1.815 0 0 0 .636-1.5 1.67 1.67 0 0 0 -.85-1.627"/><path d="m305.494 57.18c.559-.038.955-.538 1.58-.461a1.447 1.447 0 0 0 .551-1.024l-.551-.092c-.564.459-1.8.622-1.58 1.577"/><path d="m301.016 45.57-.112.069c.014 0 .03 0 .039-.012a.092.092 0 0 1 .039-.024.075.075 0 0 0 .034-.033"/><path d="m296.228 119.769-.126-.158a.788.788 0 0 0 .126.158"/><path d="m293.809 65.228c-.02.018-.02.018-.024.024.012-.006.012-.018.02-.024"/><path d="m312.623 92.047a.158.158 0 0 1 -.049-.217 1.059 1.059 0 0 0 .219-.49 1.175 1.175 0 0 0 -.113-.34.156.156 0 0 1 .086-.207.152.152 0 0 1 .2.09 1.27 1.27 0 0 1 .14.455 1.341 1.341 0 0 1 -.259.66.179.179 0 0 1 -.139.07.187.187 0 0 1 -.088-.023"/><path d="m312.268 94.4a.162.162 0 0 1 .046-.222.534.534 0 0 0 .186-.477 2 2 0 0 0 -.049-.424.158.158 0 0 1 .31-.064 2.3 2.3 0 0 1 .057.488.837.837 0 0 1 -.33.74.154.154 0 0 1 -.088.026.167.167 0 0 1 -.132-.067"/><path d="m311.764 97.025a.16.16 0 0 1 0-.224.885.885 0 0 0 .24-.616.911.911 0 0 0 -.059-.312.162.162 0 0 1 .1-.205.158.158 0 0 1 .2.092 1.187 1.187 0 0 1 .078.425 1.227 1.227 0 0 1 -.33.84.147.147 0 0 1 -.111.047.167.167 0 0 1 -.115-.047"/></g><path d="m315.8 108.127c-.3 2.164 1.034 4.779-.3 6.517-.871 1.426-7.34 2.026-7.34 2.026-3.637.5-7.226 1.344-10.767 2.08-1.145.234 1.165-2.789 2.751-2.922.79-.064.611-.811.141-.791a5.734 5.734 0 0 0 -3.539 2.367 1.368 1.368 0 0 1 -1.2.158c-.383-.226-.123-.654 0-.947.765-1.117 2-1.4 2.861-1.867-.232-.748-.657-.309-1.18-.1-1.185.459-2.033 1.545-2.988 2.233-.307.017-.392 0-.49-.262a5.48 5.48 0 0 1 1.963-2.539c2.313-2.256 6.756-3.037 7.654-3.195 1.666-.371 3.469-.539 5.184-.8.807-.852.742-2.082 1.039-3.15.209-.754 1.49-.217 2.816-.288a9.982 9.982 0 0 0 3.162-.562c1.144.23.156 1.35.233 2.045" fill="#fff"/><path d="m364.127 83.2s-.4-.242-.787-.463a1.2 1.2 0 0 0 .207-.656 1.818 1.818 0 0 0 -.008-.205h-.021l.082-.457-.512-.483a23.321 23.321 0 0 0 -15.11-2.878c-.035 0-.2.033-.2.033-.688.117-1.337.258-1.975.406h-.014a23.61 23.61 0 0 0 -5.52 2.027l-.068.041-.513.4c-1.919 1.5-4.223 3.076-5.13 5.467-.056.087-.794 1.675-.794 1.675-.69 1.252-.615 2.075-1.778 2.43-.418.045-1.125.2-1.584-1.145-.01-.033-.019-.062-.035-.107a.7.7 0 0 0 -.029-.105c-1.414-4.918-6.983-10.686-8.157-11.641-.94-.772 3.159-2.547 3.159-2.547l1.013 2.256s.416-1.473 1.468-4.613a37.554 37.554 0 0 1 3.109 3.834c.482-.952.431-4.789-.069-7.481.619 0 1.069.014 4.648 1.119-.759-1.357-2-3.293-2.907-4.845a1.375 1.375 0 0 0 -.165-.147l.1-.051a.042.042 0 0 1 .023-.006c.9-.482 2.748-1.222 3.95-1.957l-3.116-.462a9.914 9.914 0 0 1 -2.423-1.1l.067.056c-.089-.056-.239-.146-.362-.234a8.43 8.43 0 0 0 1.339-1.361 14.233 14.233 0 0 0 2.169-7.664 13.94 13.94 0 0 0 -1.035-5.367l-.025-.079-.035-.066a3.441 3.441 0 0 0 -3.368-1.613l-.119.006-.126.048a16.735 16.735 0 0 0 -7.793 5.815 8.949 8.949 0 0 0 -3.234-1.106 1.7 1.7 0 0 0 .366-.966 1.342 1.342 0 0 0 -.29-.8l-.222-.272-.346-.068a5.136 5.136 0 0 0 -3.647.971 4.747 4.747 0 0 0 -4.164.386l-.613.444s.053.138.107.259a13.332 13.332 0 0 0 -5.239-4.246l-.036-.025-.154-.039-.443-.149a2.861 2.861 0 0 0 -2.756.094.088.088 0 0 1 -.034.033.1.1 0 0 0 -.039.022 3.471 3.471 0 0 0 -1.525 2.9l-.166 1a13.652 13.652 0 0 0 -.4 3.3 22.493 22.493 0 0 0 .351 3.627v.01c.049.269.1.545.147.812 0 0 .033.119.046.2-.505.526-5.9 6.026-5.9 6.026l-.033.271a1.846 1.846 0 0 0 -.031.3 1.231 1.231 0 0 0 .5.992 1.755 1.755 0 0 0 -.128.162c-.012.006-.012.012-.02.024l-.007.012a.083.083 0 0 1 -.018.015 9.9 9.9 0 0 0 -1.5 3.805 3.314 3.314 0 0 0 -.087.383c-.6.05-1.106.107-1.681.177.094-.787.2-1.587.2-1.587v-.063c0-.016.131-.4.131-.4l.182-.375.025-.182a4.046 4.046 0 0 0 .082-.789 1.649 1.649 0 0 0 -.576-1.359l-.2-.176-.268-.037a4.147 4.147 0 0 0 -3.03.718c.05-.023.087-.039.132-.056l-.27.15c.055-.041.1-.064.138-.094a3.8 3.8 0 0 0 -1.873 1.816 8.013 8.013 0 0 0 -1.462-1.775l-.045-.045-.913-.586a5.514 5.514 0 0 0 -3.695-1.246c-.023 0-.063.008-.094.008a1.761 1.761 0 0 0 -1.326.851l-.262.315-.047.31v.235a2.36 2.36 0 0 0 .338 1.222 2.589 2.589 0 0 0 -1.8.844l-.141.16-.055.195a1.92 1.92 0 0 0 -.106.6 2.119 2.119 0 0 0 .442 1.2 1.617 1.617 0 0 0 -.674.5l-.144.2-.037.237a1.676 1.676 0 0 0 -.037.361 3.48 3.48 0 0 0 1.554 2.525l.617.567.136.1a9.766 9.766 0 0 1 2.311 2.122 11.772 11.772 0 0 0 2.647 2.423 4.32 4.32 0 0 0 2.849.678h.249c1.66 2.676 3.24 5.193 6.443 7.338a19.105 19.105 0 0 0 7.369 2.717l2.239.5 1.232.279s.166.051.276.082c-.325 1.473-.362 3.067-.559 4.736-.49 4.311 2.673 9.676 4.951 11.2 1.227.808.7 1.394.476 1.882-.294.641-.294.875-2.02 1.153-6.745.789-10.524 3.189-12.349 5.051-2.726 2.779.426 3.591.426 3.591a.237.237 0 0 1 .026.053c.134.285.134 1.082 1.658 1.106.023.054.045.113.045.113s.486.662.577.777c-.007-.008-.015-.008-.027-.015l.041.041c.42.511 1.168.384 5.227-.444 2.287-.457 5.135-1.035 7.041-1.252.092-.008 1.9-.336 1.9-.336 2.341-.369 4.766-.746 6.625-2.695l.045-.041.035-.051s0-.019.007-.019c-.06.556-.13 1.121-.13 1.121.07 1.363.915 2.469 2.513 3.379a16.869 16.869 0 0 0 3.571 1.355l2.367.787.115.032a13.491 13.491 0 0 1 2.064.664c1.743.656 3.721 1.416 5.856.347 0 0 .414-.316.445-.422a1.287 1.287 0 0 1 .141.02 1.973 1.973 0 0 0 1.383-.111 5.32 5.32 0 0 0 .486-.387 2.741 2.741 0 0 1 .592-.026h.019.2c1.586-.055 1.927-.793 1.933-.9l.205-.043s1.1-.277 1.336-.783a1.8 1.8 0 0 0 .155-.723 2.6 2.6 0 0 0 -.446-1.345l-.051-.092-.076-.073c-2.494-2.58-5.611-3.748-8.617-4.867 0 0-2.968-1.2-3.209-1.3-.885-.727-.994-2-.994-3.395 0-.164.008-.324.008-.5 0 0-.012-.639-.012-1.025.084-.123.174-.243.174-.243a20.865 20.865 0 0 0 2.865-5.029c.023-.1.154-.75.154-.75.026-.156.079-.275.11-.422l.488.235a7.631 7.631 0 0 0 2.076.923 12.75 12.75 0 0 0 9.867-2.265 20.483 20.483 0 0 0 5.707-5.778c.215-.3.436-.613.655-.912a21.665 21.665 0 0 1 5.371-5.841c1.973-1.555 4.82-1.458 7.564-1.358l1.682.049.262-.207a1.369 1.369 0 0 0 .521-1.143v-.535zm-45.41-16.185-.549-.291a24.129 24.129 0 0 1 8.488 1.853l.022.352a34.8 34.8 0 0 0 -7.961-1.914m-1.59-1.112a4.574 4.574 0 0 1 -4.233-.9 3.93 3.93 0 0 1 -1.2-3.244 3.5 3.5 0 0 1 2.528-3.014 4.245 4.245 0 0 1 4.567 1.281 3.52 3.52 0 0 1 .647 2.752 3.342 3.342 0 0 1 -2.31 3.123m12.941-19.09c.59-.107.956.385 1.41.616 2.137 3.517 1.178 8.566-.728 11.974-.587.551-1.106 1.248-1.867 1.407a.571.571 0 0 1 -.262-.114c-.223-.166-.312-.472-.512-.668.126-.685 1.137-1.343 1.462-2.133a6.678 6.678 0 0 0 .891-5.584c-.457-.523-1.11-.056-1.677-.087a27.5 27.5 0 0 0 -3.935 2.857 3.145 3.145 0 0 1 -.954-.729 7.656 7.656 0 0 0 -1.4-1.412c1.082-3.343 4.658-5.019 7.574-6.127m-28.9.616c1.349-1.44 3.117-.145 4.389.621 1.251 1.019 2.923 2.162 3.257 3.711-1.5.689-2.857 1.7-4.277 2.521-.414-1.308-.916-3.363-2.746-3.252-.951 1.18-.846 3.278-.643 5.164.02.231.051.455.073.68.173.068-.032.234-.053.307-.5.031-.393-.635-.623-.924a19.448 19.448 0 0 1 .623-8.828m-7.7 21.923c.33-.031.626-.044 1.019-.044.782-.02 1.381 0 2.008.013l-.043.063-.141.222c-.513.032-1.025.055-1.7.055a10.947 10.947 0 0 0 -1.205.111zm2.211 6.209c1.541 1.8 3.965 2.86 7.377 3.229a3.8 3.8 0 0 1 1.49 1.846c-.064-.032-.14-.037-.209-.071l-.084-.041-.145-.007-2.547-.463a20.838 20.838 0 0 0 -4.474-.608 38.3 38.3 0 0 0 -4.887-4.09 16.019 16.019 0 0 1 1.489-1.046 1.9 1.9 0 0 1 .249.039c.2.584.512 1.435.512 1.435s.7-.137 1.229-.223m-.616-2.539a4.606 4.606 0 0 1 .612-.3l.053.41c-.112.064-.342.195-.442.269zm.612-1.7c-.612.115-1.125.15-1.692.275l.057-.435c.592-.125 1.129-.174 1.775-.26zm-5.371-.144c0-.032.064-.5.138-1.073.592-.08 1.055-.158 1.645-.222-.109.586-.211 1.185-.3 1.783l-.012.137c-.5.169-1.016.353-1.473.513 0-.222 0-.972.007-1.138m-.016 1.634c.492-.156 1.047-.373 1.6-.576.173.039.514.11.857.182.027.373.076.719.114.945l.036.16.045.483v.152a13.638 13.638 0 0 0 -1.223.84c-.242-.168-.472-.33-.7-.5 0 0-.341-.242-.625-.449a4.327 4.327 0 0 1 -.117-.973c0-.086 0-.172 0-.266m-1.581 8.461c-1.061-1.125-1.518-2.511-2.6-3.628-4.363 1.078-5.636-4.295-9.123-5.9-.093-.228-.486-.461-.218-.787 1.955-.783 3.5 1.268 4.786 2.529.149 0 .389-.037.389-.236v-.221c-1.248-1.42-2.779-2.2-4.17-3.646-.338-.356-.787-.7-.457-1.174.862-.629 1.706.158 2.59.25 1.438.531 1.973 1.9 2.592 3.15.3.1.363-.232.556-.326-.783-1.285-1.146-2.758-2.359-3.863a5.6 5.6 0 0 1 -1.9-1.713c.017-.6.307-.482.629-.558 1.154-.293 3.191 1.134 4.33 2.656.39.574 2.027 1.974.888 3.086a.472.472 0 0 0 .208.558 5.63 5.63 0 0 0 .808-.959l.072-.1a3.149 3.149 0 0 0 .379-.838 2.183 2.183 0 0 1 .493-1.807 3.2 3.2 0 0 1 2.919-1.343c.293.2.043.492 0 .71a6.469 6.469 0 0 0 -.576 2.731c-1 .143-1.787.31-2.8.5a.44.44 0 0 0 -.261.152c-.013.024-.033.037-.037.053a.408.408 0 0 0 -.024.057.283.283 0 0 0 .346.384c.955-.181 1.783-.462 2.746-.654-.016.295-.031.627-.047.988-.023.536-.1 1.088-.156 1.61-.444.181-.872.379-1.344.613 0 0-.984.418-1.418.656s-.162.743.277.51c.385-.219 1.414-.683 1.414-.683.358-.19.7-.364 1.037-.528a1.785 1.785 0 0 0 .842 1.791 27.2 27.2 0 0 1 7.09 5.836c3.241 0 6.593.262 9.348 1.744a1.339 1.339 0 0 1 .131.571 7.218 7.218 0 0 1 -.6 1.853c-.644 1.123-.693 2.733-1.33 3.6-5.752-.932-11.656-2.407-15.459-7.614m27.1 26.858c-.3 2.164 1.034 4.779-.3 6.517-.871 1.426-7.34 2.026-7.34 2.026-3.637.5-7.226 1.344-10.767 2.08-1.145.234 1.165-2.789 2.751-2.924.79-.062.611-.809.142-.789a5.733 5.733 0 0 0 -3.54 2.367 1.368 1.368 0 0 1 -1.2.158c-.383-.226-.123-.654 0-.947.765-1.117 2-1.4 2.861-1.867-.232-.748-.657-.309-1.18-.1-1.185.459-2.033 1.545-2.988 2.233a.959.959 0 0 1 -.216 0c-.14-.016-.2-.072-.274-.262a5.48 5.48 0 0 1 1.963-2.539c2.313-2.256 6.756-3.037 7.654-3.195 1.666-.371 3.469-.539 5.184-.8.807-.852.742-2.082 1.039-3.15.145-.52.783-.43 1.6-.344a7.9 7.9 0 0 0 1.22.056 9.976 9.976 0 0 0 3.161-.562c1.144.23.156 1.35.233 2.045m.474-3.129a11.039 11.039 0 0 1 -5.033.961 5.722 5.722 0 0 1 -1.781-.414 7.357 7.357 0 0 1 -3.451-2.983h.009a14.706 14.706 0 0 1 -2.1-5.69c-.461-4.267.885-8.01 2.193-11.658 1.205-1.215 3.024-1.133 4.563-.945a7.335 7.335 0 0 1 4.06 2.269 5 5 0 0 0 -.476.9c-.7 1.67-.327 2.308-1.278 2.105-.175-.031-.615-.125-1.029-.215l-.145-.041a.656.656 0 0 0 -.137-.032c-.033-.011-.064-.015-.1-.025-1.031-.223-2.361-.5-2.628 1.34-.029.238.1.965.1 1.2 0 .443-.955.908-.041 2.447.1.176-.881 1.495.07 2.991.584.9 2.826 2.109 6.635 1.513a4.559 4.559 0 0 1 1.83.151c.055.621.09 1.531.106 2.107a4.772 4.772 0 0 1 .015.547c0 .076-.011.166-.015.242a2.517 2.517 0 0 1 -.034.264c-.166 1.2-.748 2.648-1.326 2.953m9.3.928a11.392 11.392 0 0 0 .384 5.894c.592 1.246 3.251 1.74 4.966 2.428a30.666 30.666 0 0 1 7.474 4.332c.127.266.7.727.172.887-1.031.025-1.722-1.145-2.6-1.573-.588-.127-1.149-1.216-1.739-.49.328.625 1.2.756 1.739 1.194.775.644 2.084 1.322 1.4 1.656a2.123 2.123 0 0 1 -.636.207c-.066.006-.132.014-.187.014-1.109 0-1.516-1.473-2.932-2.286-.56-.316-1.215-1.183-1.744-.627.132.821.957.748 1.5 1.188.817.65 2.232 1.18 1.49 2.189a3.105 3.105 0 0 1 -2.3-1.076 7.1 7.1 0 0 0 -2.989-2.459s-.333-.084-.219.262 3.187 1.934 3.208 3.844a2.82 2.82 0 0 1 -2.492.088c-3.611-1.344-7.523-1.967-10.791-4.036a2.264 2.264 0 0 1 -.724-2.357c.266-2.33.916-4.914.237-7.25-.437-.824-.958-2.053-1.966-2.324a6.681 6.681 0 0 0 1.483-3.567c.007-.07.014-.13.027-.2a12.349 12.349 0 0 0 .052-1.461 9.19 9.19 0 0 0 -.072-1.269c.643.23 1.137.492 1.336.568.977.4 4.9 1.983 7.911 1.184a4.432 4.432 0 0 0 1.117-.7 17.65 17.65 0 0 1 -3.1 5.744m4.236-9.844a6.814 6.814 0 0 1 -.545 1.437c-.1.11-.181.215-.269.305a8.16 8.16 0 0 1 -1.912 1.512 5.8 5.8 0 0 1 -3.3.119c-.326-.08-.668-.135-1-.2-.664-.143-2.186-.647-2.328-.709a9.449 9.449 0 0 0 -6.2-.725 13.063 13.063 0 0 1 -1.715-.035 5.037 5.037 0 0 1 -2.434-.709c-1.314-.666-.957-2.494-.6-2.494s.769.314.859-.035c0-.172.309-.375-.9-.619-.479-.442-.383-1.61.117-1.61s1 .369 1-.135c-.053-.125-.745-.25-1.031-.545-.121-.117-.7-2.486 2.018-1.972a.977.977 0 0 1 .135.031.734.734 0 0 1 .14.035 10.145 10.145 0 0 1 1.934.7c.511.235.47-.753.642-1.728a5.864 5.864 0 0 1 .683-1.633v-.008c.635-1.041 1.584-1.908 2.532-1.539 1.1.436-.029 1.926-.516 2.858-.611 1.15-1.027 4.892 1.844 5.216.511.051 2.437.094 2.936.094 1.547 0 .735-1.437.294-3.025-.329-1.178-.674-2.35-.93-3.563a6.207 6.207 0 0 1 -.107-3.238c-.471-.463-.736.514-.777.648-.342 1 1.377 6.645 1.843 8.538a17.446 17.446 0 0 1 -2.554-.039 2.122 2.122 0 0 1 -1.5-.733 3.745 3.745 0 0 1 -.424-3.014c.358-1.683 1.779-2.519.831-3.939-.538-.8-2.237-.645-3.468.723a7.428 7.428 0 0 0 -7.587-2.346 8.872 8.872 0 0 0 -.94.33q.024-.3.024-.6a6.752 6.752 0 0 0 -2.069-5.4l.168-.133c5.256.133 10.143-1.246 13.846-4.885.369-.031.568.725.949.725a.533.533 0 0 0 .342-.17c-.112-1.217-1.458-1.416-2.242-1.975a.6.6 0 0 0 -.17-.021.812.812 0 0 0 -.614.322c-.066.657 1.213.315 1.057 1.018a18.068 18.068 0 0 1 -10.025 4.418c-5.203.662-11.353-1.127-11.875-4.338a11.033 11.033 0 0 1 2.43-.979c.237-.042.356-.275.121-.218a17.937 17.937 0 0 0 -2.59.812 4.616 4.616 0 0 1 .09-1.347c.77-.145 1.6-.332 2.319-.539.111-.024.064-.18-.059-.172-.658.064-1.428.187-2.16.31a3.937 3.937 0 0 1 .482-1.062 1.461 1.461 0 0 1 .153-.221c.421-.018.865-.021 1.416-.021.2 0 .2-.208 0-.208-.464 0-.871-.007-1.246-.021a13.613 13.613 0 0 1 1.082-1.2c1.187-1.207 2.293-2.043 3.836-2.043a1.737 1.737 0 0 1 .232-.016h.018c.193-.017.386-.021.591-.031 2.219-.031 4.9.646 6.123-1.619a5.123 5.123 0 0 0 .52-4.166c-.827-2.1-2.895-2.377-5.016-2.19a8.914 8.914 0 0 0 -2.07.62 13.459 13.459 0 0 0 -6.3 5.175.819.819 0 0 1 -.864.1l6.4-6.475.306-.306c.916-.832 1.578-1.153 2.189-1.713 2.2-1.442 4.276-3.119 6.8-3.805a.739.739 0 0 1 .785.561c-.033 1.1-1.349 2.091-.386 3.244.58-.291.779-1.055 1.3-1.518a10.926 10.926 0 0 1 4.606-2.682 8.355 8.355 0 0 1 5.738 2.682 8.028 8.028 0 0 1 .762.719c1.739 1.885 2.457 4.465 4.422 6.375.539.484 1.082 1.043 1.674 1.521a4.343 4.343 0 0 0 1.964.995l.227.24c-.561.59-1.641.228-2.3 0-3.009-1.9-5.664-4.7-9.211-5.342-2.264-.695-4.86-1.084-7.089 0a4.713 4.713 0 0 0 -2.1 3.049 4.124 4.124 0 0 0 2.261 4.491c.962.719 2.42.219 3.376.719a26.719 26.719 0 0 0 -8.65 1.8c-.1.141-.316.211-.316.4a.231.231 0 0 0 .006.064.982.982 0 0 0 .6.078c.455-.085.918-.433 1.385-.543 2.787-.886 6.129-1.634 9.113-.851a7.377 7.377 0 0 1 3.944 2.5 11.987 11.987 0 0 1 1.893 3.139 8.531 8.531 0 0 0 -1.649.763 10.922 10.922 0 0 0 -2.075 1.336c-1.443 1.221-1.373 2.272-.689 3.11.1.107.2.211.309.324a27.309 27.309 0 0 1 3.949 3.463 23.811 23.811 0 0 1 4.721 7.347 10.317 10.317 0 0 1 .462 6.434m-26.613-36.614a4.1 4.1 0 0 1 3.237-.737c.975.33 1.85.541 2.266 1.688a4.011 4.011 0 0 1 -1.183 4.623 1.145 1.145 0 0 1 -.239.166.09.09 0 0 1 -.047.031 3.915 3.915 0 0 1 -3.256.2 3.34 3.34 0 0 1 -1.962-2.752 3.977 3.977 0 0 1 1.184-3.218m39.3 37.945a11.716 11.716 0 0 1 -5.342 2.365c.889-1.99 1.6-4.523.779-6.691-1.019-1.635-3.113-1.475-4.72-1.34v-.232c1.572-.985 1.478-2.985 3.209-3.639a5.185 5.185 0 0 1 5.125-.135 3.886 3.886 0 0 1 1.57 1.881c.525 2.525.625 5.461-.621 7.791m7.533-8.883c-.941 1.149-1.592 2.465-2.646 3.617l-.16-.173a11.736 11.736 0 0 0 -.893-8.565c-.774-1.33-3.274-2.353-3.274-2.353.944-.28 2.012-.817 3.083-1.069a3.114 3.114 0 0 1 2.949.571 6.8 6.8 0 0 1 .941 7.972m7.822-5.379c-.625 1.373-2.13.555-2.986 1.342.125-1.373 1.19-3.273-.338-4.488l.176-.135c1.047.27 2.2.363 3.221.688a2.992 2.992 0 0 1 -.073 2.593m-52.583-16.139a8.507 8.507 0 0 0 -2.573-.407c-.189 0-.38.006-.568.022a4.653 4.653 0 0 0 -1.584.385c-1.192.453-1.246 1.732-1.287 2.685a5.7 5.7 0 0 0 3.259 3.221c1.862.455 2.815-1.61 3.773-2.824a4.074 4.074 0 0 0 .081-1.153 2.685 2.685 0 0 0 -1.1-1.929" fill="#161615"/><path d="m288.7 81.269c-1.061-1.125-1.518-2.513-2.6-3.628-4.363 1.078-5.636-4.295-9.123-5.9-.094-.23-.486-.461-.219-.787 1.956-.783 3.5 1.266 4.787 2.529.149 0 .389-.037.389-.236v-.221c-1.248-1.42-2.779-2.2-4.17-3.646-.338-.356-.787-.7-.457-1.174.862-.629 1.706.158 2.59.25 1.438.531 1.973 1.9 2.592 3.15.3.1.363-.23.556-.326-.783-1.285-1.146-2.758-2.359-3.863a5.6 5.6 0 0 1 -1.9-1.713c.017-.6.306-.482.629-.558 1.154-.293 3.191 1.134 4.33 2.656.389.576 2.027 1.974.888 3.084a.474.474 0 0 0 .208.56 5.63 5.63 0 0 0 .808-.959l.072-.1a3.121 3.121 0 0 0 .379-.838 2.184 2.184 0 0 1 .492-1.807 3.2 3.2 0 0 1 2.92-1.343c.293.2.043.492 0 .71a6.469 6.469 0 0 0 -.576 2.731c-1 .143-1.787.31-2.8.5a.44.44 0 0 0 -.261.152c-.013.024-.034.037-.037.055a.34.34 0 0 0 -.024.053.284.284 0 0 0 .346.386c.955-.181 1.783-.462 2.746-.654-.016.295-.031.627-.047.988-.023.536-.1 1.088-.156 1.61-.444.181-.872.377-1.344.613 0 0-.984.42-1.418.656s-.162.743.277.51c.385-.219 1.414-.683 1.414-.683.358-.19.7-.364 1.037-.528a1.785 1.785 0 0 0 .842 1.791 27.2 27.2 0 0 1 7.09 5.836c3.24 0 6.593.262 9.348 1.744a1.339 1.339 0 0 1 .131.571 7.243 7.243 0 0 1 -.6 1.853c-.644 1.123-.693 2.733-1.33 3.6-5.752-.93-11.656-2.4-15.459-7.612" fill="#fff"/><g clip-path="url(#b)"><g clip-path="url(#b)" fill="#fff"><path d="m349.113 80.547a6.811 6.811 0 0 1 .94 7.969c-.94 1.16-1.594 2.462-2.653 3.623l-.157-.182a11.716 11.716 0 0 0 -.891-8.555c-.774-1.34-3.275-2.367-3.275-2.367 1.862-.527 4.166-2.1 6.036-.488"/><path d="m343.141 89.605c.521 2.534.623 5.459-.623 7.805a11.712 11.712 0 0 1 -5.343 2.35c.884-1.979 1.594-4.512.781-6.682-1.018-1.635-3.116-1.484-4.726-1.35v-.228c1.579-.979 1.483-2.984 3.211-3.631a5.151 5.151 0 0 1 5.129-.141 3.987 3.987 0 0 1 1.571 1.877"/><path d="m338.422 118.572c.126.26.693.725.166.883-1.027.031-1.721-1.145-2.6-1.578-.592-.117-1.152-1.215-1.744-.488.331.638 1.207.755 1.744 1.2.774.646 2.083 1.324 1.4 1.656-1.8.877-2.044-1.088-3.756-2.074-.561-.309-1.217-1.176-1.744-.617.133.814.955.75 1.5 1.183.82.649 2.233 1.176 1.491 2.2a3.049 3.049 0 0 1 -2.3-1.088 7.118 7.118 0 0 0 -2.982-2.455s-.34-.08-.23.259c.112.356 3.188 1.934 3.212 3.85a2.777 2.777 0 0 1 -2.493.08c-3.606-1.334-7.52-1.965-10.786-4.025a2.266 2.266 0 0 1 -.728-2.358c.27-2.328.916-4.916.239-7.26-.435-.8-.955-2.044-1.965-2.312a7.518 7.518 0 0 0 1.562-5.231 9.475 9.475 0 0 0 -.072-1.263c.641.221 1.137.482 1.334.553.978.412 4.9 1.988 7.914 1.191a4.364 4.364 0 0 0 1.112-.7 17.349 17.349 0 0 1 -3.1 5.736 11.442 11.442 0 0 0 .386 5.9c.592 1.248 3.251 1.744 4.963 2.431a30.224 30.224 0 0 1 7.481 4.332"/><path d="m331.66 63.551.229.236c-.561.586-1.643.223-2.3 0-3.015-1.916-5.674-4.693-9.216-5.34-2.273-.687-4.861-1.082-7.086 0a4.68 4.68 0 0 0 -2.1 3.045 4.12 4.12 0 0 0 2.255 4.49c.964.709 2.416.221 3.371.709a27.061 27.061 0 0 0 -8.64 1.817c-.1.148-.316.2-.316.4l-1.475.022a2.661 2.661 0 0 0 -1.1-1.924 8.033 8.033 0 0 0 -2.58-.418l-.008-.561c2.217-.056 4.9.647 6.13-1.617a5.165 5.165 0 0 0 .521-4.166c-.828-2.107-2.895-2.377-5.019-2.195a8.858 8.858 0 0 0 -2.066.617 13.585 13.585 0 0 0 -6.3 5.168.785.785 0 0 1 -.853.117l6.392-6.478.307-.307c.916-.828 1.579-1.168 2.194-1.721 2.193-1.435 4.268-3.107 6.793-3.81a.773.773 0 0 1 .782.576c-.032 1.1-1.35 2.09-.387 3.234.584-.283.783-1.049 1.3-1.515a10.9 10.9 0 0 1 4.608-2.674 8.335 8.335 0 0 1 5.736 2.674 8.457 8.457 0 0 1 .765.718c1.737 1.895 2.455 4.467 4.419 6.377 1.089.963 2.162 2.264 3.638 2.524m-13.769-7.473c.552.127 1.113.813 1.7.4-.427-1.17-1.809-1.318-2.818-1.761a1.064 1.064 0 0 0 -.458 1.121c.418.529 1.018-.1 1.579.236m-10.249-.4-.553-.086c-.561.457-1.8.615-1.578 1.578.56-.047.954-.545 1.578-.457a1.483 1.483 0 0 0 .553-1.035"/><path d="m331.494 47.416c2.139 3.51 1.176 8.56-.726 11.969a4.381 4.381 0 0 1 -1.868 1.415.581.581 0 0 1 -.259-.112c-.223-.164-.317-.472-.514-.669.125-.686 1.136-1.348 1.468-2.137a6.683 6.683 0 0 0 .884-5.58c-.459-.53-1.114-.055-1.673-.086a27.637 27.637 0 0 0 -3.938 2.855 3.174 3.174 0 0 1 -.955-.724 7.166 7.166 0 0 0 -1.4-1.407c1.089-3.351 4.663-5.025 7.575-6.144.592-.1.954.385 1.412.623"/><path d="m329.363 89.629a10.28 10.28 0 0 1 .465 6.439 7.059 7.059 0 0 1 -.543 1.444 3.39 3.39 0 0 1 -.269.293 7.606 7.606 0 0 1 -1.916 1.513 5.7 5.7 0 0 1 -3.291.119c-.332-.072-.67-.127-1-.189a22.97 22.97 0 0 1 -2.329-.711 9.518 9.518 0 0 0 -6.2-.732 10.94 10.94 0 0 1 -1.712-.026 5 5 0 0 1 -2.43-.7c-1.319-.664-.963-2.5-.6-2.5s.774.307.86-.047c0-.158.308-.363-.9-.607-.48-.449-.387-1.61.118-1.61s.994.379.994-.134c-.055-.125-.75-.254-1.034-.553-.158-.143-.971-3.6 4.23-1.2.512.236.465-.748.639-1.729a5.771 5.771 0 0 1 .686-1.633v-.007c.632-1.049 1.578-1.911 2.533-1.54 1.1.436-.031 1.918-.52 2.858-.609 1.152-1.027 4.892 1.846 5.215.512.054 2.438.1 2.935.1 1.547 0 .734-1.429.292-3.023-.332-1.189-.671-2.357-.939-3.564a6.309 6.309 0 0 1 -.094-3.237c-.466-.465-.735.512-.782.639-.34.994 1.381 6.66 1.846 8.545a17.645 17.645 0 0 1 -2.548-.039 2.1 2.1 0 0 1 -1.508-.75 3.665 3.665 0 0 1 -.424-3c.362-1.68 1.774-2.526.818-3.938-.527-.795-2.224-.646-3.455.719a7.4 7.4 0 0 0 -7.59-2.344c-.292.063-.481.174-.947.324a5.185 5.185 0 0 0 .031-.591 6.747 6.747 0 0 0 -2.066-5.4l.166-.127c5.254.127 10.146-1.248 13.846-4.877.458-.046.656 1.161 1.286.538-.1-1.217-1.451-1.4-2.24-1.973a.59.59 0 0 0 -.166-.024l.087-1.751h.03c1.193.093 2.368.236 3.529.441.071-.094.2-.127.157-.229-.086-.127-.221-.127-.323-.269a36.38 36.38 0 0 0 -12.333.025h-.008l-.126-.726c.458-.088.923-.442 1.388-.545 2.786-.883 6.132-1.633 9.114-.852a7.4 7.4 0 0 1 3.945 2.5 11.906 11.906 0 0 1 1.894 3.139 9.721 9.721 0 0 0 -1.649.76c-3.5 1.8-3.685 3.312-2.754 4.449a3.933 3.933 0 0 0 .3.314 28.1 28.1 0 0 1 3.946 3.465 23.647 23.647 0 0 1 4.718 7.346m-16.238 1.7a1.284 1.284 0 0 0 -.143-.465.154.154 0 0 0 -.3.065.143.143 0 0 0 .007.054 1.256 1.256 0 0 1 .119.346 1.046 1.046 0 0 1 -.221.49.146.146 0 0 0 .055.205.1.1 0 0 0 .079.026.15.15 0 0 0 .134-.073 1.366 1.366 0 0 0 .268-.648m-.623 3.1a.791.791 0 0 0 .33-.735 2.3 2.3 0 0 0 -.054-.49.165.165 0 0 0 -.189-.119.163.163 0 0 0 -.118.158v.033a1.859 1.859 0 0 1 .047.418.539.539 0 0 1 -.19.481.16.16 0 0 0 -.047.22.193.193 0 0 0 .134.057.117.117 0 0 0 .087-.023m-.166 1.757a1.154 1.154 0 0 0 -.079-.433.155.155 0 0 0 -.206-.094.162.162 0 0 0 -.086.205 1 1 0 0 1 .055.322.9.9 0 0 1 -.237.608.157.157 0 0 0 0 .223.125.125 0 0 0 .111.039.123.123 0 0 0 .111-.039 1.278 1.278 0 0 0 .331-.831"/><path d="m326.673 68.57.022.346a34.324 34.324 0 0 0 -7.961-1.91l-.55-.291a23.98 23.98 0 0 1 8.489 1.855"/><path d="m318.807 60.016a3.51 3.51 0 0 1 .646 2.746 3.335 3.335 0 0 1 -2.311 3.125 4.572 4.572 0 0 1 -4.23-.885 3.929 3.929 0 0 1 -1.2-3.25 3.491 3.491 0 0 1 2.524-3.014 4.242 4.242 0 0 1 4.57 1.278m-1.028 4.625a1.745 1.745 0 0 0 0-1.809 1.991 1.991 0 0 0 -3.3-.242 1.711 1.711 0 0 0 -.3 1.82 1.76 1.76 0 0 0 1.175 1.027 1.94 1.94 0 0 0 2.429-.8"/><path d="m316.834 71.883c-.064.664 1.215.324 1.057 1.019a18.141 18.141 0 0 1 -10.021 4.426c-5.2.664-11.354-1.129-11.875-4.34a10.94 10.94 0 0 1 2.431-.978c.228-.039.353-.268.118-.221a20.816 20.816 0 0 0 -2.588.8 4.841 4.841 0 0 1 .086-1.334c.772-.141 1.6-.33 2.32-.537.111-.031.072-.18-.055-.172-.655.055-1.428.187-2.163.307a4.136 4.136 0 0 1 .632-1.278c.426-.023.868-.023 1.419-.023.2 0 .2-.205 0-.205-.465 0-.867-.024-1.246-.024a15.616 15.616 0 0 1 1.082-1.2c1.192-1.2 2.3-2.043 3.834-2.043.079 0 .158-.023.23-.023.2-.016.4-.024.607-.024l.008.561c-.19 0-.379.008-.561.023a4.831 4.831 0 0 0 -1.587.4c-1.19.441-1.246 1.728-1.285 2.681a5.655 5.655 0 0 0 3.259 3.213c1.862.457 2.817-1.6 3.772-2.826a3.829 3.829 0 0 0 .079-1.144l1.475-.022a.206.206 0 0 0 .008.063 1.055 1.055 0 0 0 .592.078l.126.726-.5.086-.15.293a46.245 46.245 0 0 1 9.6-.347l-.087 1.75a.824.824 0 0 0 -.615.324m-2.5 1.508c-.055-.063-.126-.094-.1-.166-1.514-1.073-3.3-1.459-4.955-2.194-.45-.023-1.434-.387-1.507.3a14.76 14.76 0 0 1 4.893 1.57c.52.268 1.175.826 1.664.489"/><path d="m317.654 100.984a4.105 4.105 0 0 1 .008.543c-.039 1.28-.71 3.117-1.365 3.457-.963.481-4.308 1.6-6.819.545a7.355 7.355 0 0 1 -3.447-2.967h.009a14.908 14.908 0 0 1 -2.1-5.712c-.464-4.27.884-8 2.2-11.647 1.206-1.215 3.013-1.137 4.56-.955a7.375 7.375 0 0 1 4.063 2.264 4.717 4.717 0 0 0 -.481.908c-.694 1.672-.323 2.305-1.278 2.107-.229-.056-.949-.189-1.412-.3-1.034-.212-2.36-.5-2.628 1.35-.031.236.095.963.095 1.191 0 .442-.963.924-.038 2.454.1.173-.885 1.484.068 2.982.585.908 2.826 2.115 6.637 1.531a4.284 4.284 0 0 1 1.829.143c.057.623.089 1.531.1 2.107"/><path d="m315.587 106.072c1.143.229.158 1.342.227 2.045-.3 2.162 1.044 4.781-.3 6.51-.867 1.435-7.338 2.027-7.338 2.027-3.638.5-7.229 1.35-10.771 2.082-1.143.239 1.168-2.785 2.746-2.918.8-.064.615-.82.151-.789a5.73 5.73 0 0 0 -3.543 2.36 1.353 1.353 0 0 1 -1.192.164c-.385-.229-.127-.662 0-.953.765-1.114 2-1.381 2.865-1.864-.239-.758-.664-.314-1.184-.109-1.184.465-2.037 1.555-2.991 2.232-.308.024-.4 0-.49-.259.387-1.256 1.065-1.666 1.965-2.534 2.3-2.257 6.755-3.054 7.655-3.195 1.665-.371 3.471-.537 5.183-.8.805-.853.742-2.1 1.042-3.148.2-.766 1.476-.229 2.818-.293a10.067 10.067 0 0 0 3.155-.561"/><path d="m308.723 60.41a4.014 4.014 0 0 1 -1.184 4.625 1.824 1.824 0 0 0 .639-1.5 1.631 1.631 0 0 0 -.852-1.617 2.339 2.339 0 0 0 -1.736.047 1.715 1.715 0 0 0 -.955 1.808 1.911 1.911 0 0 0 1 1.483 2.211 2.211 0 0 0 1.421.062c.046-.015.094-.039.133-.054a3.967 3.967 0 0 1 -3.187.173 3.362 3.362 0 0 1 -1.965-2.769 4.014 4.014 0 0 1 1.184-3.221 4.108 4.108 0 0 1 3.235-.724c.978.339 1.846.544 2.265 1.687"/><path d="m305.574 48.039c1.254 1.018 2.926 2.162 3.258 3.707-1.49.688-2.855 1.705-4.275 2.52-.419-1.305-.916-3.364-2.747-3.245-1.081 1.317-.8 3.811-.568 5.846.174.055-.031.231-.056.3-.5.031-.394-.631-.624-.916a19.449 19.449 0 0 1 .624-8.838c1.35-1.441 3.118-.141 4.388.625"/><path d="m296.508 69.318-.182.27c-.513.039-1.025.054-1.7.054-.4 0-.8.073-1.215.112l.08-.41c.329-.026.622-.047 1.017-.047.781-.018 1.381 0 2 .021"/><path d="m295.828 70.9-.141.413c-.607.117-1.121.156-1.688.275l.055-.428c.591-.125 1.13-.172 1.774-.26"/><path d="m295.687 72.713.055.41a3.6 3.6 0 0 0 -.441.268l-.221-.372a2.5 2.5 0 0 1 .607-.306"/></g></g><path d="m315.572 106.082a9.976 9.976 0 0 1 -3.161.562c-1.327.071-2.608-.466-2.817.288-.3 1.068-.232 2.3-1.039 3.15-1.715.26-3.518.428-5.184.8-.9.158-5.341.939-7.654 3.195a5.48 5.48 0 0 0 -1.963 2.539c.1.262.183.279.49.262.955-.688 1.8-1.776 2.988-2.233.523-.2.948-.644 1.18.1-.865.469-2.1.75-2.861 1.867-.123.293-.383.721 0 .947a1.368 1.368 0 0 0 1.2-.158 5.733 5.733 0 0 1 3.54-2.367c.469-.02.648.727-.142.791-1.586.133-3.9 3.156-2.751 2.922 3.541-.736 7.13-1.58 10.767-2.08 0 0 6.469-.6 7.34-2.026 1.339-1.738 0-4.353.3-6.517-.077-.695.911-1.815-.233-2.045" fill="#fff"/><g clip-path="url(#c)"><path d="m0 0h79.753v56.476h-79.753z" fill="url(#d)" transform="matrix(.15032912 -.98863601 .98863601 .15032912 6.456 122.039)"/></g><g clip-path="url(#e)"><path d="m0 0h82.933v59.666h-82.933z" fill="url(#f)" transform="matrix(.15 -.989 .989 .15 4.644 123.371)"/></g><g clip-path="url(#g)"><path d="m0 0h53.892v53.134h-53.892z" fill="url(#h)" transform="matrix(.15034637 -.98863338 .98863338 .15034637 57.426 122.715)"/></g><g clip-path="url(#i)"><path d="m0 0h57.094v56.339h-57.094z" fill="url(#j)" transform="matrix(.15 -.989 .989 .15 55.599 124.049)"/></g><g clip-path="url(#k)"><path d="m0 0h72.545v16.596h-72.545z" fill="url(#l)" transform="matrix(.15 -.989 .989 .15 103.585 120.88)"/></g><g clip-path="url(#m)"><path d="m0 0h75.726v19.777h-75.726z" fill="url(#n)" transform="matrix(.15 -.989 .989 .15 101.774 122.215)"/></g><g clip-path="url(#o)"><path d="m0 0h53.603v51.239h-53.603z" fill="url(#p)" transform="matrix(.15032912 -.98863601 .98863601 .15032912 116.752 122.715)"/></g><g clip-path="url(#q)"><path d="m0 0h56.888v55.063h-56.888z" fill="url(#r)" transform="matrix(.15036363 -.98863076 .98863076 .15036363 114.931 124.049)"/></g><g clip-path="url(#s)"><path d="m0 0h53.603v51.24h-53.603z" fill="url(#t)" transform="matrix(.15032912 -.98863601 .98863601 .15032912 164.108 122.715)"/></g><g clip-path="url(#u)"><path d="m0 0h56.888v55.065h-56.888z" fill="url(#v)" transform="matrix(.15034637 -.98863338 .98863338 .15034637 162.283 124.049)"/></g><path d="m18.1 143.037v1.234h-1.83v-13.314h1.812v4.473a4.721 4.721 0 0 1 3.5-1.473 5.272 5.272 0 0 1 2.054.379 4.944 4.944 0 0 1 1.664 1.174 5.127 5.127 0 0 1 1.079 1.683 5.421 5.421 0 0 1 .375 2 5.179 5.179 0 0 1 -1.5 3.791 5.1 5.1 0 0 1 -3.774 1.516 4.556 4.556 0 0 1 -1.825-.371 4.79 4.79 0 0 1 -1.555-1.092zm-.074-3.73a3.354 3.354 0 0 0 1.02 2.427 3.207 3.207 0 0 0 2.355 1.037 3.316 3.316 0 0 0 2.461-1.027 3.525 3.525 0 0 0 1.006-2.566 3.462 3.462 0 0 0 -3.448-3.467 3.184 3.184 0 0 0 -2.391 1.053 3.548 3.548 0 0 0 -.998 2.543z" fill="#161615"/><path d="m29.737 139.908a3.391 3.391 0 0 0 1.14 2.045 3.362 3.362 0 0 0 3.794.354 3.164 3.164 0 0 0 1.176-1.219h2.039a5.743 5.743 0 0 1 -1.943 2.562 4.885 4.885 0 0 1 -2.9.889 5.161 5.161 0 0 1 -2.04-.4 5.02 5.02 0 0 1 -1.673-1.179 5.4 5.4 0 0 1 -1.1-1.725 5.276 5.276 0 0 1 -.4-2.008 5.379 5.379 0 0 1 .362-1.984 5.291 5.291 0 0 1 1.064-1.682 4.878 4.878 0 0 1 3.744-1.649 5.105 5.105 0 0 1 2.464.615 5.018 5.018 0 0 1 2.536 3.229 7.566 7.566 0 0 1 .21 1.871v.281zm6.485-1.625a3.639 3.639 0 0 0 -1.171-1.926 3.042 3.042 0 0 0 -1.993-.681 3.2 3.2 0 0 0 -2.063.7 3.566 3.566 0 0 0 -1.2 1.908z" fill="#161615"/><path d="m39.779 144.271v-13.314h1.793v13.314z" fill="#161615"/><path d="m43.877 145.076h1.929a2.886 2.886 0 0 0 1.1 1.076 3.224 3.224 0 0 0 1.559.369 3.353 3.353 0 0 0 2.46-.918 3.268 3.268 0 0 0 .934-2.437v-.129a4.8 4.8 0 0 1 -1.551 1.094 4.555 4.555 0 0 1 -1.824.371 5.09 5.09 0 0 1 -3.768-1.514 5.175 5.175 0 0 1 -1.5-3.791 5.432 5.432 0 0 1 .375-2.012 5.093 5.093 0 0 1 1.07-1.675 4.938 4.938 0 0 1 1.66-1.174 5.264 5.264 0 0 1 2.054-.379 4.725 4.725 0 0 1 3.5 1.473v-1.219h1.815v8.4a5.861 5.861 0 0 1 -1.363 4.11 4.837 4.837 0 0 1 -3.75 1.486 5.186 5.186 0 0 1 -2.954-.818 4.456 4.456 0 0 1 -1.746-2.313zm1.216-5.9a3.512 3.512 0 0 0 1.011 2.56 3.32 3.32 0 0 0 2.473 1.033 3.207 3.207 0 0 0 2.355-1.037 3.35 3.35 0 0 0 1.02-2.427 3.541 3.541 0 0 0 -1.011-2.538 3.209 3.209 0 0 0 -2.4-1.058 3.447 3.447 0 0 0 -3.447 3.467z" fill="#161615"/><path d="m57.585 133.031h-1.792v-2.074h1.792zm-1.792 11.24v-10.06h1.792v10.06z" fill="#161615"/><path d="m68.13 144.271h-1.738v-1.125a3.562 3.562 0 0 1 -1.211 1.02 3.338 3.338 0 0 1 -1.505.336 3.725 3.725 0 0 1 -2.945-1.182 4.842 4.842 0 0 1 -1.042-3.32v-5.791h1.811v5.269a4.23 4.23 0 0 0 .576 2.442 1.977 1.977 0 0 0 1.729.812 2.437 2.437 0 0 0 1.271-.332 2.39 2.39 0 0 0 .887-.955 3.054 3.054 0 0 0 .289-.916 11.821 11.821 0 0 0 .086-1.709v-4.611h1.792z" fill="#161615"/><path d="m76.508 139.2a5.232 5.232 0 0 0 -.52-2.672 1.8 1.8 0 0 0 -1.649-.832 1.922 1.922 0 0 0 -1.721.838 4.77 4.77 0 0 0 -.555 2.592v5.148h-1.72v-10.06h1.61v1.181a3.368 3.368 0 0 1 1.134-1.011 3.077 3.077 0 0 1 1.446-.332 3.581 3.581 0 0 1 1.822.42 3.1 3.1 0 0 1 1.194 1.316 3.132 3.132 0 0 1 1.239-1.307 3.778 3.778 0 0 1 1.879-.429 3.544 3.544 0 0 1 2.733 1.109 4.2 4.2 0 0 1 1.027 2.969v6.144h-1.82v-5.863a3.152 3.152 0 0 0 -.565-2 2.176 2.176 0 0 0 -3.265.045 4.755 4.755 0 0 0 -.514 2.561v5.257h-1.755z" fill="#161615"/><path d="m101.49 140.844a5.654 5.654 0 0 1 -1.875 2.756 4.884 4.884 0 0 1 -3.027.939 5.153 5.153 0 0 1 -2.04-.391 4.951 4.951 0 0 1 -1.654-1.166 5.39 5.39 0 0 1 -1.1-1.722 5.377 5.377 0 0 1 2.775-6.918 5.055 5.055 0 0 1 2.076-.43 4.837 4.837 0 0 1 3 .955 5.356 5.356 0 0 1 1.848 2.684h-1.993a3.155 3.155 0 0 0 -3.018-1.84 3 3 0 0 0 -2.281 1.015 3.557 3.557 0 0 0 -.937 2.506 3.518 3.518 0 0 0 .95 2.516 3.124 3.124 0 0 0 2.369 1.006 3.083 3.083 0 0 0 1.72-.5 3.3 3.3 0 0 0 1.2-1.41z" fill="#0066ae"/><path d="m103.291 144.271v-13.314h1.793v13.314z" fill="#0066ae"/><path d="m108.587 139.908a3.385 3.385 0 0 0 1.139 2.045 3.229 3.229 0 0 0 4.97-.865h2.039a5.743 5.743 0 0 1 -1.943 2.562 4.882 4.882 0 0 1 -2.9.889 5.154 5.154 0 0 1 -2.04-.4 5.024 5.024 0 0 1 -1.674-1.179 5.421 5.421 0 0 1 -1.1-1.725 5.313 5.313 0 0 1 -.4-2.008 5.379 5.379 0 0 1 .362-1.984 5.276 5.276 0 0 1 1.065-1.682 4.87 4.87 0 0 1 3.75-1.654 5.105 5.105 0 0 1 2.464.615 5.235 5.235 0 0 1 1.88 1.725 5.158 5.158 0 0 1 .648 1.5 7.564 7.564 0 0 1 .211 1.871v.281zm6.484-1.625a3.639 3.639 0 0 0 -1.171-1.926 3.045 3.045 0 0 0 -1.994-.681 3.2 3.2 0 0 0 -2.062.7 3.567 3.567 0 0 0 -1.2 1.908z" fill="#0066ae"/><path d="m126.759 144.271v-1.234a4.8 4.8 0 0 1 -1.551 1.094 4.555 4.555 0 0 1 -1.824.371 5.09 5.09 0 0 1 -3.768-1.514 5.175 5.175 0 0 1 -1.5-3.791 5.432 5.432 0 0 1 .375-2.012 5.109 5.109 0 0 1 1.07-1.675 4.932 4.932 0 0 1 1.661-1.174 5.254 5.254 0 0 1 2.052-.379 4.857 4.857 0 0 1 1.9.365 4.712 4.712 0 0 1 1.582 1.108v-1.219h1.829v10.06zm-6.768-5.093a3.515 3.515 0 0 0 1.01 2.56 3.323 3.323 0 0 0 2.474 1.033 3.205 3.205 0 0 0 2.355-1.037 3.35 3.35 0 0 0 1.02-2.427 3.541 3.541 0 0 0 -1.011-2.538 3.208 3.208 0 0 0 -2.4-1.058 3.445 3.445 0 0 0 -3.447 3.467z" fill="#0066ae"/><path d="m132.5 144.271h-1.81v-10.06h1.737v1.144a3.62 3.62 0 0 1 1.249-.992 3.691 3.691 0 0 1 1.559-.314 3.89 3.89 0 0 1 3.032 1.16 4.779 4.779 0 0 1 1.056 3.33v5.732h-1.823v-5.339a3.876 3.876 0 0 0 -.594-2.373 2.57 2.57 0 0 0 -3.8.136 5.61 5.61 0 0 0 -.609 3z" fill="#0066ae"/><path d="m143.238 133.031h-1.792v-2.074h1.792zm-1.792 11.24v-10.06h1.792v10.06z" fill="#0066ae"/><path d="m147.207 144.271h-1.807v-10.06h1.737v1.144a3.61 3.61 0 0 1 1.249-.992 3.691 3.691 0 0 1 1.559-.314 3.892 3.892 0 0 1 3.032 1.16 4.784 4.784 0 0 1 1.056 3.33v5.732h-1.82v-5.339a3.876 3.876 0 0 0 -.594-2.373 2.57 2.57 0 0 0 -3.8.136 5.6 5.6 0 0 0 -.609 3z" fill="#0066ae"/><path d="m156.3 145.076h1.929a2.881 2.881 0 0 0 1.1 1.076 3.218 3.218 0 0 0 1.559.369 3.356 3.356 0 0 0 2.46-.918 3.267 3.267 0 0 0 .933-2.437v-.129a4.812 4.812 0 0 1 -1.55 1.094 4.56 4.56 0 0 1 -1.825.371 5.087 5.087 0 0 1 -3.767-1.514 5.171 5.171 0 0 1 -1.5-3.791 5.432 5.432 0 0 1 .375-2.012 5.09 5.09 0 0 1 1.069-1.675 4.947 4.947 0 0 1 1.66-1.174 5.272 5.272 0 0 1 2.054-.379 4.721 4.721 0 0 1 3.5 1.473v-1.219h1.811v8.4a5.861 5.861 0 0 1 -1.363 4.11 4.837 4.837 0 0 1 -3.75 1.486 5.185 5.185 0 0 1 -2.953-.818 4.447 4.447 0 0 1 -1.742-2.313zm1.216-5.9a3.512 3.512 0 0 0 1.011 2.56 3.32 3.32 0 0 0 2.473 1.035 3.205 3.205 0 0 0 2.355-1.037 3.35 3.35 0 0 0 1.02-2.427 3.54 3.54 0 0 0 -1.01-2.538 3.211 3.211 0 0 0 -2.4-1.058 3.447 3.447 0 0 0 -3.448 3.467z" fill="#0066ae"/><path d="m182.631 140.74a5.647 5.647 0 0 1 -1.875 2.756 4.881 4.881 0 0 1 -3.026.939 5.146 5.146 0 0 1 -2.04-.39 4.994 4.994 0 0 1 -1.655-1.166 5.412 5.412 0 0 1 -1.1-1.723 5.38 5.38 0 0 1 2.776-6.918 5.051 5.051 0 0 1 2.076-.429 4.839 4.839 0 0 1 3 .955 5.358 5.358 0 0 1 1.847 2.683h-1.985a3.352 3.352 0 0 0 -1.224-1.381 3.388 3.388 0 0 0 -1.793-.459 2.993 2.993 0 0 0 -2.282 1.016 3.561 3.561 0 0 0 -.937 2.506 3.515 3.515 0 0 0 .951 2.515 3.121 3.121 0 0 0 2.369 1.006 3.08 3.08 0 0 0 1.719-.5 3.29 3.29 0 0 0 1.2-1.41z" fill="#161615"/><path d="m183.849 139.148a5.476 5.476 0 0 1 .361-2 5.075 5.075 0 0 1 1.065-1.668 5.481 5.481 0 0 1 1.71-1.252 4.656 4.656 0 0 1 1.976-.439 5.087 5.087 0 0 1 3.73 1.555 5.479 5.479 0 0 1 1.141 1.711 5.056 5.056 0 0 1 .4 1.964 5.611 5.611 0 0 1 -.371 2.012 5.36 5.36 0 0 1 -2.761 2.986 4.86 4.86 0 0 1 -2.036.434 5.147 5.147 0 0 1 -2.038-.4 5.038 5.038 0 0 1 -1.673-1.176 5.414 5.414 0 0 1 -1.1-1.723 5.3 5.3 0 0 1 -.404-2.004zm1.876-.019a3.5 3.5 0 0 0 .954 2.515 3.143 3.143 0 0 0 2.381 1.006 3.084 3.084 0 0 0 2.346-1.009 3.563 3.563 0 0 0 .947-2.53 3.523 3.523 0 0 0 -.947-2.525 3.285 3.285 0 0 0 -4.727.015 3.531 3.531 0 0 0 -.954 2.528z" fill="#161615"/><path d="m201.965 139.094a5.227 5.227 0 0 0 -.52-2.672 1.8 1.8 0 0 0 -1.648-.832 1.916 1.916 0 0 0 -1.721.838 4.773 4.773 0 0 0 -.557 2.591v5.149h-1.719v-10.061h1.609v1.182a3.385 3.385 0 0 1 1.135-1.012 3.082 3.082 0 0 1 1.445-.332 3.588 3.588 0 0 1 1.822.42 3.1 3.1 0 0 1 1.2 1.317 3.094 3.094 0 0 1 1.238-1.307 3.773 3.773 0 0 1 1.879-.43 3.54 3.54 0 0 1 2.732 1.11 4.2 4.2 0 0 1 1.028 2.968v6.145h-1.821v-5.868a3.142 3.142 0 0 0 -.564-2 2.174 2.174 0 0 0 -3.264.045 4.74 4.74 0 0 0 -.515 2.56v5.258h-1.756z" fill="#161615"/><path d="m213.8 142.951v4.475h-1.811v-13.319h1.83v1.237a4.822 4.822 0 0 1 1.549-1.084 4.565 4.565 0 0 1 1.826-.371 5.144 5.144 0 0 1 5.276 5.295 5.4 5.4 0 0 1 -.375 2 5.2 5.2 0 0 1 -1.078 1.692 4.972 4.972 0 0 1 -1.661 1.176 5.257 5.257 0 0 1 -2.052.38 4.794 4.794 0 0 1 -1.9-.373 4.948 4.948 0 0 1 -1.604-1.108zm-.055-3.877a3.553 3.553 0 0 0 1 2.543 3.189 3.189 0 0 0 2.391 1.051 3.452 3.452 0 0 0 3.447-3.465 3.528 3.528 0 0 0 -1-2.561 3.307 3.307 0 0 0 -2.461-1.035 3.21 3.21 0 0 0 -2.355 1.039 3.356 3.356 0 0 0 -1.023 2.428z" fill="#161615"/><path d="m232.234 144.168v-1.234a4.772 4.772 0 0 1 -1.549 1.093 4.552 4.552 0 0 1 -1.824.371 5.093 5.093 0 0 1 -3.767-1.513 5.177 5.177 0 0 1 -1.5-3.791 5.432 5.432 0 0 1 .375-2.012 5.081 5.081 0 0 1 1.07-1.676 4.952 4.952 0 0 1 1.66-1.174 5.263 5.263 0 0 1 2.053-.379 4.859 4.859 0 0 1 1.9.366 4.682 4.682 0 0 1 1.58 1.107v-1.219h1.83v10.061zm-6.765-5.094a3.516 3.516 0 0 0 1.009 2.561 3.329 3.329 0 0 0 2.473 1.033 3.219 3.219 0 0 0 2.358-1.037 3.354 3.354 0 0 0 1.017-2.428 3.544 3.544 0 0 0 -1.008-2.537 3.217 3.217 0 0 0 -2.4-1.059 3.443 3.443 0 0 0 -3.447 3.467z" fill="#161615"/><path d="m237.978 144.168h-1.808v-10.061h1.736v1.145a3.617 3.617 0 0 1 1.248-.992 3.691 3.691 0 0 1 1.559-.315 3.891 3.891 0 0 1 3.031 1.16 4.782 4.782 0 0 1 1.059 3.33v5.733h-1.823v-5.34a3.894 3.894 0 0 0 -.593-2.373 2.57 2.57 0 0 0 -3.8.137 5.6 5.6 0 0 0 -.61 3z" fill="#161615"/><path d="m262.043 141.01v.035a1.933 1.933 0 0 0 1.824 2.117 1.627 1.627 0 0 0 1.715-1.623c0-1.041-.584-1.5-1.787-1.934-1.533-.548-2.629-1.023-2.629-2.812a2.8 2.8 0 0 1 2.848-2.754 2.591 2.591 0 0 1 2.793 2.7h-1.352a1.479 1.479 0 0 0 -2.957-.019 1.336 1.336 0 0 0 .73 1.277 12.678 12.678 0 0 0 1.954.73 2.646 2.646 0 0 1 1.787 2.7 2.932 2.932 0 0 1 -3.121 2.918c-1.8 0-3.045-1.258-3.1-3.338z" fill="#161615"/><path d="m263.848 144.6c-1.978 0-3.292-1.407-3.35-3.582l-.007-.256h1.8v.25a1.694 1.694 0 0 0 1.574 1.9 1.375 1.375 0 0 0 1.465-1.373c0-.84-.395-1.252-1.622-1.7-1.373-.492-2.794-1-2.794-3.047a3.056 3.056 0 0 1 3.1-3 2.827 2.827 0 0 1 3.043 2.939l.01.262h-1.848l-.014-.236a1.154 1.154 0 0 0 -1.264-1.225 1.166 1.166 0 0 0 -1.193 1.192 1.086 1.086 0 0 0 .61 1.062 4.2 4.2 0 0 0 1.117.443 7.4 7.4 0 0 1 .8.272 2.9 2.9 0 0 1 1.939 2.932 3.167 3.167 0 0 1 -3.366 3.167zm-2.836-3.338a2.764 2.764 0 0 0 2.836 2.838 2.684 2.684 0 0 0 2.871-2.668 2.393 2.393 0 0 0 -1.635-2.473 6.385 6.385 0 0 0 -.749-.25 4.7 4.7 0 0 1 -1.24-.5 1.575 1.575 0 0 1 -.847-1.488 1.655 1.655 0 0 1 1.693-1.692 1.626 1.626 0 0 1 1.74 1.461h.856a2.307 2.307 0 0 0 -2.523-2.2 2.555 2.555 0 0 0 -2.6 2.5c0 1.613.936 2.029 2.463 2.576 1.206.44 1.953.955 1.953 2.17a1.88 1.88 0 0 1 -1.965 1.873 2.15 2.15 0 0 1 -2.066-2.152z" fill="#161615"/><path d="m248.423 133.107h-1.792v-2.074h1.792zm-1.792 11.241v-10.061h1.792v10.061z" fill="#161615"/><path d="m251.438 139.877a3.4 3.4 0 0 0 1.139 2.045 3.232 3.232 0 0 0 4.971-.865h2.039a5.76 5.76 0 0 1 -1.943 2.562 4.883 4.883 0 0 1 -2.9.887 5.119 5.119 0 0 1 -2.04-.4 5 5 0 0 1 -1.674-1.177 5.447 5.447 0 0 1 -1.1-1.725 5.3 5.3 0 0 1 -.4-2.008 5.4 5.4 0 0 1 .362-1.984 5.265 5.265 0 0 1 1.065-1.682 4.885 4.885 0 0 1 3.75-1.656 5.108 5.108 0 0 1 2.465.617 5.226 5.226 0 0 1 1.88 1.725 5.158 5.158 0 0 1 .648 1.5 7.553 7.553 0 0 1 .211 1.871v.281zm6.485-1.625a3.644 3.644 0 0 0 -1.171-1.926 3.048 3.048 0 0 0 -2-.682 3.2 3.2 0 0 0 -2.062.7 3.556 3.556 0 0 0 -1.2 1.908z" fill="#161615"/><path d="m238.121 117.34-.229-.065-.187-.047c-4.582-1.179-8.4-4.5-10.778-9.388-1.558-3.192-1.526-7.8-.84-10.725 1.45-6.185 6.038-11.492 10.085-16.168.344-.4.685-.785 1.023-1.18l.646-.742c3.88-4.519 7.9-9.189 11.45-14.142.232-.324.467-.647.7-.969.521-.719 1.072-1.461 1.576-2.223.237-.355.543-.838.87-1.367.033.621.069 1.19.105 1.619.075.907.2 1.826.317 2.711.051.393.106.789.154 1.184.742 6.062 2.034 12.109 3.28 17.951l.2.941c.1.506.215 1.018.329 1.53 1.312 6.056 2.8 12.922 1.108 19.043-.8 2.9-2.976 6.951-5.867 9a17.816 17.816 0 0 1 -10.264 3.5 14.776 14.776 0 0 1 -3.682-.465m18-75.959c-.756 1.136-1.576 2.25-2.36 3.332-.354.48-.705.967-1.055 1.453-5.325 7.426-11.357 14.439-17.181 21.217l-.964 1.109q-.759.879-1.531 1.774c-6.075 7.013-12.96 14.974-15.131 24.25-1.03 4.392-1.076 11.3 1.259 16.087 3.56 7.323 9.3 12.323 16.17 14.086l.282.073.344.091c6.865 1.764 14.292.153 20.92-4.552 4.335-3.076 7.6-9.155 8.8-13.5 2.536-9.188.3-19.485-1.661-28.569q-.258-1.154-.5-2.3l-.306-1.412c-1.874-8.767-3.8-17.832-4.921-26.927-.071-.592-.152-1.188-.233-1.78-.172-1.328-.356-2.7-.471-4.062-.054-.645-.112-1.494-.164-2.436-.487.8-.945 1.52-1.3 2.061" fill="url(#w)"/></g></svg>