<?xml version="1.0" encoding="utf-8"?>
<!-- Generator: Adobe Illustrator 14.0.0, SVG Export Plug-In . SVG Version: 6.00 Build 43363)  -->
<!DOCTYPE svg PUBLIC "-//W3C//DTD SVG 1.1//EN" "http://www.w3.org/Graphics/SVG/1.1/DTD/svg11.dtd">
<svg version="1.1" id="Layer_1" xmlns="http://www.w3.org/2000/svg" xmlns:xlink="http://www.w3.org/1999/xlink" x="0px" y="0px"
	 width="300px" height="217.334px" viewBox="0 0 300 217.334" enable-background="new 0 0 300 217.334" xml:space="preserve">
<g>
	<g>
		<g>
			<g>
				<path fill="#004712" d="M199.497,140.321c1.633-0.818,6.383,2.127,6.712,5.728C206.535,149.649,196.225,141.96,199.497,140.321z
					 M189.842,148.175c3.241,0.772,12.395-11.467,2.946-11.781c0,0-5.752-0.351-3.357,5.727
					C190.043,143.673,189.842,148.175,189.842,148.175z M270.771,65.199c3.099-0.261,6.71-4.255,5.974-4.336
					c-0.737-0.083-1.229,0.164-2.291-0.246c-1.063-0.408-0.819-1.553-4.175-2.619c-2.838-0.899-7.508,0.808-9.409,3.439
					C259.807,62.909,265.943,65.608,270.771,65.199z M266.952,30.258c-1.555-1.391-1.744-2.128-4.691-2.208
					c-2.569-0.071-7.282,2.045-5.81,4.255c6.241,9.365,14.48,1.376,14.074-0.654C270.362,30.83,268.209,31.382,266.952,30.258z
					 M285.746,85.332c-8.02-4.256-25.693-2.947-29.295-3.273c-10.515-0.958-19.967-5.565-21.111-7.449
					c-0.165-4.745,6.381-7.119,8.265-8.183c1.882-1.063,5.892-1.31,7.036-0.572c1.42,0.913-0.128,6.316,2.865,8.51
					c3.553,2.605,6.383,2.21,8.183,2.619c1.801,0.409,4.664,2.618,4.827,1.391c0.164-1.228-0.981-8.347-2.536-11.048
					c-2.027-3.521-7.61-4.254-7.938-4.991c-0.325-0.736,2.129-1.473,2.864-2.537c1.827-2.64-0.221-4.376,0.71-6.55
					c0.582-1.359,1.293-2.562,0.764-2.616c-3.069-0.307-7.681,1.443-9.935,3.406c-3.543,3.088-2.832,7.151-2.832,7.151
					c-0.785,1.309-4.697,2.225-7.527,2.372c-0.563,0.032,2.173-7.889,2.291-8.837c0.083-0.653,2.005-4.527,0.886-11.292
					c-0.435-2.638-1.554-5.226-1.433-5.893c0.36-1.965,6.111-1.688,6.111-0.818c0,4.002,0.382,5.67,0.801,6.711
					c0.545,1.364,0.346,1.336,1.981,2.291c3.669,2.14,10.945,1.218,15.058,3.274c0.818,0.408-0.713-4.051-1.533-5.442
					c-0.77-1.309-1.956-3.623-3.35-5.17c-4.499-4.991-6.883-2.955-9.683-4.119c-0.215-0.088,4.501-6.628,3.764-10.147
					c-0.737-3.518-1.965-6.218-3.927-7.528c-0.953-0.634-9.381,7.167-9.575,10.311c-0.353,5.676,2.524,4.559,1.608,6.39
					c-0.52,1.039-2.494,1.432-2.618,1.247c-2.901-4.38-4.307-6.759-5.784-8.946c-2.994-4.429,1.428-8.667-0.489-12.275
					c-3.656-6.88-7.41-5.733-9.655-5.81c-2.373-0.083-8.322,2.601-7.093,4.009c2.092,2.397,3.035,3.106,2.183,5.239
					c0,0-3.438,0.817-5.81-0.411c-2.373-1.228-3.683-4.747-11.049-3.109c-3.637,0.809-8.018,9.656-8.346,11.21
					c-0.41,1.949,1.942-0.606,4.092,0.329c1.882,0.818,4.175,1.822,6.466,1.636c5.073-0.41,7.445-6.056,8.1-6.791
					c0.655-0.737,2.782-0.657,2.456-0.083c-1.758,3.074-2.089,6.28,0.653,6.382c2.21,0.082,0.163-5.891,5.729-5.073
					c5.564,0.818,5.564,5.237,5.564,5.237s-6.874-1.309-8.346,0.655c-1.473,1.963,5.824,4.406,4.745,8.182
					c-0.326,1.146-3.733-1.298-6.874-0.491c-2.864,0.736-8.881,5.978-6.545,7.773c0.708,0.546,1.8-0.765,4.254,0.901
					c2.275,1.542,2.776,2.658,5.155,2.045c5.402-1.391,5.052-4.281,6.71-6.137c1.056-1.182,2.846-0.951,3.438-0.163
					c0.491,0.654,1.308,0.982-0.081,1.718c-1.392,0.736-4.257,2.045-5.238,5.074c-0.983,3.027-1.145,7.854-0.163,8.755
					c0.868,0.797,3.433-2.696,6.22-2.455c6.906,0.601,5.684-12.429,6.817-9.955c2.505,5.462,0.737,15.411-0.517,15.001
					c-4.313-1.407-6.67-0.463-6.138,1.392c1.315,4.583,3.664-0.309,5.319,3.273c0.708,1.538-4.22,9.909-4.913,7.558
					c-1.189-2.214-12.911-16.033-16.392-18.741c-4.599-6.365-10.071-12.955-18.221-19.149c-8.183-6.218-18.656-13.747-31.423-13.747
					c-23.917,0-36.03,15.014-37.314,15.712c-2.81,1.528-2.919,3.41-8.185,4.091c-14.376-1.243-28.494-9.801-50.925,6.383h0.191
					c-6.577,5.363-11.366,11.632-14.366,16.553c-0.647,1.063-1.975,2.702-2.328,3.578c-0.606,1.518,0.414,4.017,1.123,5.502
					c2.128,4.455,8.007,7.144,11.122,10.127c0.327,0.313,0.635,0.597,0.849,0.9c1.963,2.781,10.801,2.291,11.948,2.946
					c8.717,4.979,17.553,5.881,19.475,7.201c1.28,0.877,0.163,4.582-1.556,5.483c-1.718,0.899-5.972,1.554-12.52,2.291
					c-6.546,0.736-5.4,6.71-7.527,5.647c-2.762-1.383-10.312-4.638-10.312-4.638c-0.409-0.981,2.463-3.913,1.8-6.737
					c-0.553-2.359-3.765-3.763-5.156-4.991c-1.391-1.228-1.309-3.846-1.799-3.765c-5.848,0.974-1.919,11.647-3.628,11.647
					c-0.808,0-6.671-7.088-6.751-7.339c-0.306-0.958,3.191-0.025,4.896-4.799c0.915-2.562-1.008-5.8-2.727-8.009
					c-1.967-2.53-0.154-3.183-0.792-3.694c-0.098-0.021-8.142,5.043-7.147,11.185c0,0-1.936-1.228-4.391-3.738
					c-0.542-0.552,3.589-4.278,2.946-8.837c-0.509-3.602-2.749-6.53-8.059-9.531c-3.417-1.929-1.406-4.893-3.97-3.234
					c-1.392,0.9-5.141,9.486-3.273,14.402c2.504,6.591,6.874,5.975,6.792,6.875c-6.056,0.246-13.093,10.229-12.193,10.555
					c0.9,0.328,1.406-1.047,3.124,0.017c3.732,2.309,5.57,2.814,8.415,2.685c2.277-0.105,5.204-2.587,7.774-2.702
					c1.737-0.076,6.573,6.547,6.573,6.547c-11.319-0.792-16.412,0.429-17.034-2.195c-0.245-1.033-2.109-1.267-2.878-0.669
					c-1.134,0.883-1.291,3.601-4.09,3.601c-3.525,0-3.851-2.757-4.338-3.192c-2.062-1.845-12.228-3.877-10.229,8.593
					c0.492,0.655,3.186-2.998,5.593-1.582c-0.196-0.116-1.6,3.495-1.664,6.983c-0.052,2.887,2.962,7.805,4.419,8.838l3.601-4.445
					c2.884-1.928,6.844-2.469,8.101-4.311c2.291-3.355-2.454-6.791-0.245-7.364c8.829-2.289,17.419-0.704,18.139-0.573
					c3.726,0.677,2.672,1.228,2.672,1.228c-3.641,1.819-1.531,3.734-7.855,4.008c-3.135,0.137-3.253-4.658-5.754-3.599
					c-4.713,1.995-0.738,4.882-0.492,5.618c0.23,0.696,1.799,0.928,2.782,2.074c0.982,1.146-1.31,3.764-1.473,3.601
					c-0.105-0.105-3.078-0.758-5.964,0.61c2.279-1.052-2.2-0.051-4.183,4.462c-2.914,6.638,2.619,15.712,2.619,15.712
					c1.364-0.136,10.011-7.748,11.239-12.247c1.226-4.502-0.705-6.016-1.115-7.927h0.138c0.43-1.663,0.956-1.887,2.012-2.903
					c1.049-1.011,3.44-1.761,3.356-1.445c-1.092,4.093-0.729,9.286,0.45,8.797c2.267-0.938,4.463-3.146,5.817-4.419
					c4.637-4.365,2.571-10.106,3.798-11.47c1.228-1.365,5.848,1.043,7.854,1.991c1.157,0.548,10.079,4.165,10.966,7.773
					c0.188,0.77-1.533,1.4-2.487,1.676c-3.104,0.95-7.536,0.544-7.661,0.043c-0.001-0.008-0.005-0.019-0.009-0.043
					c-0.174-0.477-0.769,0.825-1.086-1.368c-0.128-0.89,0.435-1.102,0.196-2.107c-0.28-1.184-2.7-0.735-3.601-0.245
					c-1.465,0.798-2.209,3.028-1.391,4.583c0.861,1.634,3.601,0.505,4.364,2.617c-0.08-0.221,0.317,1.854-2.508,1.938
					c-4.593,0.134-5.119-0.201-6.192,0.028c-2.886,0.617-4.42,1.881-5.156,3.191c-1.597,2.84-3.765,8.346-2.783,8.754
					c0.983,0.411,6.956,1.064,9.738,0.492c2.783-0.574,4.555-4.2,5.456-9.521c0,0,3.635-3.686,9.437-4.117
					c0.844-0.063,0.246,6.511-0.245,6.6c-7.236,1.313-6.008,6.31-9.164,8.019c-0.509,0.276,3.272,4.585,9,3.438
					c1.607-0.32,5.195-1.995,3.929-0.163c-3.847,5.563,9.655,12.765,10.146,10.802c0.491-1.964-0.736-8.346-6.628-11.048
					c-3.297-1.512,3.38-6.816,4.664-2.536c0.491,1.638,6.71,7.856,10.638,5.564c0,0-2.799-6.276,1.31-12.438
					c0.655-0.983,0.328-5.892-1.963-6.548c-2.291-0.653,6.219-6.219,17.02-2.618c1.098,0.367,1.021,3.18,0,3.355
					c-8.593,1.473-4.583,9.901-4.583,9.901c8.189-0.943,6.623-10.484,6.956-11.484c0.327-0.981,4.174-1.445,4.5,0.519
					c0.328,1.965-2.208,2.292-2.946,4.254c-1.477,3.943,3.273,3.604,3.764,3.274c2.708-1.803,3.947-6.542,3.766-6.545
					c12.173,0.337,14.771,10.846,14.401,10.472c1.366,1.369,5.489-2.339,4.583-3.597c-6.734-9.369-12.572-10.348-12.928-10.723
					c-1.09-1.14,1.254-1.744,1.431-2.743c0.491-1.88,0.205-3.721-1.268-4.293c-1.473-0.572-1.555-0.491-2.945,0.162
					c-1.477,0.693-0.982,2.701-1.882,3.111c-0.9,0.409-4.993-2.945-4.829-4.174c0.281-2.104,5.602-2.405,6.792-1.555
					c1.719,1.227,15.958,1.965,20.213,0.9c2.918-0.729,4.671,0.02,3.464-2.7c-1.076-2.418-3.808-16.056-0.165-23.948
					c5.217-11.301,10.122-14.373,15.14-18.522c1.808-1.493,0.547,2.455,0.547,2.455c-28.678,23.64-8.215,43.556-11.132,44.354
					c-2.505,0.684-5.563,1.02-8.346,1.772c-3.099,0.835-5.859,2.088-7.146,2.864c-2.722,2.894,0.92,9.399,4.855,8.946
					c15.606-1.797,15.63-3.518,17.922-3.518c22.914,0,21.817-5.102,23.484-2.864c2.556,3.425-18.402,11.816-19.392,11.934
					c-1.092,0.34-1.176,0.64-1.721,0.025c0,0,0.19-0.748,0.602-2.318c0.136-0.527-0.032-1.385-0.943-2.113
					c-0.339-0.273-0.913-0.56-1.663-0.014c-1.275,0.928-1.561,4.139-2.449,5.038c-11.433,11.562-47.754,9.052-47.754,9.052
					s-2.292,4.908,0,4.908c29.815,0,45.498-8.183,54.99-11.456c9.494-3.272,6.933,2.742,8.185,3.354
					c3.308,1.62,5.973-4.581,5.973-4.581s12.684,1.555,13.012,2.536c2.16,6.479,20.214,7.435,20.349,2.181l-1.529-1.007
					c-8.324-13.926-15.786-3.3-17.429-3.63c-6.547-1.308-10.622-1.712-12.902-3.028c-1.324-0.764,6.765-4.01,8.975-2.126
					c2.199,1.874-0.269,2.016,2.454,2.68c1.398,0.341,4.655-2.466,5.32-4.233c0.326-0.873,20.075-2.074,20.075-0.109
					c0-0.703-1.699,7.768,4.309,10.664c1.856,0.896,1.229,4.42,2.293,4.501c3.727,0.286,7.478-5.889,7.609-12.847
					c0.07-3.687,17.771,9.977,15.138,12.193c-7.2,6.055,0.818,12.682,0.818,12.765c0,0.081,5.894-3.764,2.62-12.602
					c0,0,2.454-1.146,2.454,0.818c0,11.684,17.348,7.201,17.02,6.22c-3.471-10.412-10.064-10.886-15.056-9.167
					s-8.511-6.301-8.511-6.301s15.68-0.552,17.349,2.047c1.473,2.289,4.255,5.319,9.411,4.745
					c5.154-0.572,10.965-8.511,10.637-11.291c-0.174-1.478-2.555,0.831-4.91-0.655c-3.143-1.986-9.089-1.445-9.738-1.146
					c-2.69,1.242-3.189,2.456-4.582,3.603c-1.618,1.33-2.21,1.145-2.78,0.161c0.166,0.289,4.908-5.728,3.601-10.311
					c5.89,1.147,11.379,1.353,17.925-0.775c10.295-3.347,12.188-10.898,12.351-16.735C294.518,95.642,293.765,89.586,285.746,85.332
					z M114.68,114.416L114.68,114.416c-0.088-0.02-8.919-1.962-14.807-2.218l-5.494-0.166c-4.985-0.135-8.3-0.232-8.926-0.336
					c-0.521-0.087-1.029-0.579-0.911-1.452c0.211-1.539,2.881-5.318,12.588-4.287c3.125,0.33,5.662,0.92,7.701,1.394
					c1.212,0.282,2.258,0.525,3.175,0.659c2.46,0.357,4.072,0.53,5.036,0.629c0.71,0.077,1.067,0.115,1.302,0.175
					c1.893,0.473,1.489,3.896,1.318,4.936l-0.139,0.854L114.68,114.416z M69.984,61.23l-0.512,1.082l-0.333,0.7l-0.331,0.699
					l-0.547-0.547l-0.274-0.275c-0.491-0.041-0.944-0.279-1.272-0.701c-0.699-0.899-0.853-2.682,0.034-3.899
					c0.374-0.514,1.477-1.62,3.665-0.825c0.532,0.193,1.946,0.707,1.846,1.953C72.192,60.255,71.421,60.863,69.984,61.23z
					 M132.137,93.616c-0.016,0.922-0.914,1.595-1.704,2.188l-0.04,0.03l-0.042,0.024c-0.311,0.179-7.402,4.17-12.086,0.289
					c-0.567,0.65-1.478,2.058-2.027,3.132c1.705-0.79,4.244-1.582,5.617-0.172c1.235,1.27,0.84,2.379,0.613,2.796
					c-0.687,1.261-2.648,1.843-3.978,1.58c-1.229-0.248-2.098-0.169-2.382,0.214c-0.413,0.556,0.042,2.03,0.48,2.851l0.189,0.354
					c0.001,0-0.163,0.367-0.163,0.367c-0.164,0.363-0.773,1.538-1.779,1.467c-1.026-0.071-1.382-1.305-1.5-1.711
					c-1.323-4.563-0.982-7.533-0.781-8.848c-0.901-0.169-1.675-0.608-2.306-1.322c-2.529-2.862-1.772-9.253-1.74-9.524l0.088-0.71
					l0.717-0.006c3.957-0.039,5.617,2.887,6.607,4.633c0.266,0.469,0.619,1.085,0.824,1.243c0.359-0.23,0.731-0.662,1.126-1.119
					c1.018-1.18,2.411-2.795,5.145-2.795c2.503,0,3.698,0.843,4.57,1.459c0.406,0.287,0.725,0.512,1.1,0.614
					c1.351,0.369,1.893,0.872,2.372,1.316c0.126,0.117,0.246,0.229,0.379,0.335C132.024,92.774,132.142,93.278,132.137,93.616z
					 M249.408,89.679c-0.197,0.673-0.978,1.022-2.692,1.201c-2.163,0.229-8.677,0.244-10.182-2.554
					c-0.403-0.75-0.593-1.997,0.791-3.679c1.643-1.998,4.661-2.182,7.876-0.483C247.707,85.486,249.956,87.808,249.408,89.679z
					 M257.637,114.924c-0.164,0.768-0.949,1.044-2.136,1.463c-2.489,0.877-6.25,2.202-6.25,7.567c0,0.787-0.432,1.418-1.182,1.733
					c-1.255,0.526-3.293,0.085-4.021-0.632c-0.36-0.354-0.474-0.818-0.304-1.24c0.801-2.009,1.262-5.033,0.657-5.7
					c-0.173-0.16-0.883-0.398-1.116-0.341c-0.467,0.157-0.808,0.451-0.98,0.853c-0.216,0.496-0.166,1.134,0.138,1.792
					c0.587,1.273-0.489,2.485-0.614,2.619l-0.123,0.135l-0.169,0.066c-4.832,1.961-7.409,0.303-8.084-0.252
					c-0.686-0.566-1.019-1.207-0.913-1.759c0.072-0.363,0.323-0.645,0.67-0.755c4.621-1.465,5.23-4.16,5.72-6.325
					c0.313-1.381,0.607-2.686,1.933-3.152c1.183-0.418,1.549-0.742,1.656-0.865c-0.093-0.107-0.321-0.273-0.614-0.394
					c-5.305-2.161-9.537-2.605-12.582-1.319c-2.827,1.191-3.803,3.6-4.124,4.39c-0.027,0.068-0.051,0.126-0.071,0.177
					c-0.322,0.747-0.433,1.804-0.539,2.827c-0.171,1.65-0.334,3.204-1.396,3.914c-1.158,0.773-4.563-0.579-5.471-1.515
					c-0.585-0.6-0.504-1.221-0.233-1.604c3.804-5.365,3.947-7.028,3.726-7.814c-0.311-1.101-1.41-1.889-2.557-1.835
					c-1.009,0.05-2.079,0.882-2.343,1.172c-0.297,0.436-0.206,2.633-0.155,3.814c0.082,1.987,0.105,2.967-0.295,3.501
					c-0.185,0.245-0.353,0.527-0.531,0.826c-0.692,1.163-1.642,2.752-4.153,2.44l-0.396-0.055c-1.158-0.155-2.471-0.332-8.073-0.186
					c-3.586,0.093-6.035,0.735-7.823,1.207c-1.396,0.366-2.406,0.634-3.354,0.504c-0.611-0.083-1.078-0.341-1.385-0.768
					c-0.6-0.826-0.392-1.957-0.175-3.156c0.072-0.384,0.14-0.773,0.18-1.142c-0.349-0.03-1.043,0.093-1.455,0.17
					c-1.051,0.198-1.959,0.366-2.392-0.355c-0.426-0.708,0.181-1.472,0.442-1.797c2.411-3.031,8.938-8.838,13.429-11.947
					c0.686-0.475,0.919-1.158,0.894-1.412c-1.074-0.406-2.148-0.96-2.259-1.955c-0.074-0.662,0.312-1.269,1.142-1.805
					c1.094-0.699,3.867,0.248,5.676,0.994c8.383-5.353,17.94-16.006,24.147-24.282c1.396-1.861,2.608-1.649,3.064-1.472
					c0.813,0.317,1.289,1.227,1.185,2.263c-0.067,0.663-0.823,1.748-2.969,4.679c-1.225,1.671-3.106,4.251-3.764,5.565
					c4.005-0.938,6.353,0.835,7.63,2.547c1.125,1.511,1.978,3.958,2.005,5.126l0.04-0.005c0.088,0.595,0.229,1.175,0.369,1.734
					c0.371,1.501,0.756,3.054-0.369,4.131c-0.052,0.05-0.115,0.122-0.185,0.195c-0.353,0.388-1.012,1.107-2.011,0.908
					c-0.669-0.135-1.4-0.699-1.784-1.371c-0.285-0.499-0.355-1.03-0.195-1.49c1.165-3.366,0.934-5.021,0.782-5.577
					c-0.2-0.732-0.958-1.687-2.213-2.223c-1.312-0.56-3.563-0.853-6.844,0.932c-2.668,1.449-10.405,7.699-15.527,11.836
					c-1.978,1.598-3.688,2.978-4.659,3.723l-0.007-0.009c-0.295,0.208-1.574,1.146-2.379,1.738c-3.38,2.274-6.908,5.371-7.691,7.102
					c0.828-0.32,2.23-1.023,3.601-1.711c11.156-5.588,37.283-18.68,59.324,2.359C257.672,114.178,257.701,114.628,257.637,114.924z
					 M235.586,78.897c0.494-0.051,1.653-0.165,2.202,0.655c0.535,0.799,0.079,1.86-0.309,2.589
					c-0.361,0.677-0.564,1.218-0.699,1.574c-0.183,0.479-0.387,1.025-1.023,1.03c-0.646,0.006-0.868-0.546-1.122-1.187
					c-0.713-1.779-0.831-3.083-0.351-3.875C234.56,79.233,235.021,78.953,235.586,78.897z M88.06,117.593h0.005
					c-0.127-0.012-3.125-0.264-5.347,3.398c-1.177,1.939-1.824,3.307-1.925,4.064c-0.092,0.688-0.513,0.851-0.902,0.946
					c-0.056,0.014-0.119,0.029-0.198,0.052c-0.751,0.204-1.365,0.16-1.877-0.135c-0.875-0.503-1.149-1.531-1.499-2.833
					c-0.173-0.648-0.371-1.385-0.669-2.148c-0.522-1.329-0.995-3.209-0.289-4.614c0.369-0.732,1.019-1.242,1.885-1.478
					c1.693-0.46,10.225-2.635,11.906-0.249c0.348,0.494,0.575,1.355-0.326,2.652l-0.28,0.401L88.06,117.593z"/>
				<path fill="#004712" d="M41.761,177.782v-4.572c0-8.26-0.401-9.783-2.888-11.067c-2.246-1.122-2.887-1.764-2.887-3.207
					c0-3.048,3.048-4.649,8.822-4.649c3.127,0,6.175,0.479,9.302,0.479c5.053,0,10.025-0.722,14.997-0.722
					c11.227,0,18.685,5.614,18.685,14.033c0,9.705-7.699,10.826-7.699,12.593c0,0.881,0.401,1.282,1.924,1.843
					c6.577,2.486,7.86,7.459,8.742,13.715c0.401,3.126,0.962,4.009,2.967,4.57c1.524,0.4,2.887,1.124,2.887,2.967
					c0,3.608-4.731,5.936-12.108,5.936c-5.374,0-8.981-1.364-11.148-4.092c-5.212-6.415-3.609-19.888-11.227-19.888
					c-2.005,0-2.326,0.641-2.326,5.134c0,7.057,0.48,8.739,2.727,9.943c1.523,0.882,2.325,2.003,2.325,3.368
					c0,3.528-3.85,4.81-14.274,4.81c-9.864,0-14.516-1.762-14.516-5.452c0-4.409,5.613,0,5.613-13.873L41.761,177.782z
					 M59.403,174.895c0,1.684,0.242,2.646,2.166,2.646c4.49,0,6.495-2.326,6.495-7.377c0-5.134-1.765-7.62-5.373-7.62
					c-2.004,0-2.727,0.804-2.887,3.209L59.403,174.895z"/>
				<path fill="#004712" d="M142.895,188.607c0,11.629-11.068,20.611-25.263,20.611c-11.708,0-20.368-7.778-20.368-18.205
					c0-12.59,9.542-21.411,23.577-21.893C132.067,169.121,142.895,176.5,142.895,188.607z M114.745,182.833
					c0,3.129,1.364,9.464,2.968,13.553c0.802,2.167,2.084,3.208,3.929,3.208c2.405,0,3.529-1.442,3.529-4.89
					c0-3.77-1.283-9.545-3.048-13.795c-0.721-1.604-2.084-2.728-3.849-2.728C116.108,178.342,114.745,180.108,114.745,182.833z"/>
				<path fill="#004712" d="M191.169,188.607c0,11.629-11.065,20.611-25.26,20.611c-11.71,0-20.369-7.778-20.369-18.205
					c0-12.59,9.543-21.411,23.573-21.893C180.342,169.121,191.169,176.5,191.169,188.607z M163.021,182.833
					c0,3.129,1.363,9.464,2.966,13.553c0.801,2.167,2.087,3.208,3.93,3.208c2.405,0,3.529-1.442,3.529-4.89
					c0-3.77-1.284-9.545-3.046-13.795c-0.723-1.604-2.089-2.728-3.851-2.728C164.385,178.342,163.021,180.108,163.021,182.833z"/>
				<path fill="#004712" d="M217.229,192.618c0,3.127,1.767,5.372,4.092,5.372c4.01,0,2.968-1.763,5.212-1.763
					c1.684,0,2.566,2.243,2.566,3.609c0,6.254-11.307,9.382-16.361,9.382c-8.1,0-13.631-5.213-13.631-12.912v-18.045
					c0-1.202-0.16-1.363-1.364-1.363h-4.01c-1.523,0-1.764-0.32-1.764-2.084v-1.765c0-0.64,0.32-1.362,0.881-1.686l17.965-11.307
					c0.401-0.24,0.883-0.32,1.604-0.32h3.209c1.282,0,1.602,0.48,1.602,2.165v5.376c0,1.521,0.321,1.843,2.005,1.843h7.219
					c1.924,0,2.327,0.481,2.327,2.807v2.324c0,2.488-0.642,3.289-2.566,3.289h-7.059c-1.442,0-1.926,0.401-1.926,1.843V192.618z"/>
				<path fill="#004712" d="M241.369,208.256c-0.401,0-0.721,0-1.202,0.08c-0.642,0.16-0.963,0.16-0.963,0.16
					c-0.241,0.081-0.481,0.081-0.723,0.081c-1.762,0-2.484-0.321-3.608-1.765c-2.083-2.564-3.608-6.496-3.608-9.143
					c0-2.246,1.042-3.608,2.806-3.608c4.251,0,5.935,7.618,10.827,7.618c1.766,0,2.888-0.961,2.888-2.646
					c0-3.69-14.916-5.695-14.916-16.922c0-7.539,5.773-12.991,13.794-12.991c2.726,0,5.292,1.043,8.018,1.043
					c1.444,0,2.649-1.043,4.092-1.043c3.447,0,7.056,6.736,7.056,9.943c0,2.246-1.604,3.849-3.849,3.849
					c-4.251,0-6.335-6.094-10.024-6.094c-1.444,0-2.728,1.284-2.728,2.646c0,4.651,16.762,5.934,16.762,17.644
					c0,6.817-6.496,12.109-14.917,12.109c-1.845,0-3.606-0.243-5.452-0.479C244.257,208.577,242.813,208.256,241.369,208.256z"/>
			</g>
		</g>
	</g>
</g>
</svg>
